%TF.GenerationSoftware,KiCad,Pcbnew,8.0.6*%
%TF.CreationDate,2025-10-25T19:26:17+02:00*%
%TF.ProjectId,COSMO Adapter v1.0,434f534d-4f20-4416-9461-707465722076,rev?*%
%TF.SameCoordinates,Original*%
%TF.FileFunction,Drillmap*%
%TF.FilePolarity,Positive*%
%FSLAX45Y45*%
G04 Gerber Fmt 4.5, Leading zero omitted, Abs format (unit mm)*
G04 Created by KiCad (PCBNEW 8.0.6) date 2025-10-25 19:26:17*
%MOMM*%
%LPD*%
G01*
G04 APERTURE LIST*
%ADD10C,0.050000*%
%ADD11C,0.200000*%
%ADD12C,0.100000*%
G04 APERTURE END LIST*
D10*
X17250000Y-7450000D02*
G75*
G02*
X16950000Y-7450000I-150000J0D01*
G01*
X16950000Y-7450000D02*
G75*
G02*
X17250000Y-7450000I150000J0D01*
G01*
X13050000Y-6850000D02*
X17350000Y-6850000D01*
X17350000Y-13650000D01*
X13050000Y-13650000D01*
X13050000Y-6850000D01*
X17250000Y-12950000D02*
G75*
G02*
X16950000Y-12950000I-150000J0D01*
G01*
X16950000Y-12950000D02*
G75*
G02*
X17250000Y-12950000I150000J0D01*
G01*
X13450000Y-12950000D02*
G75*
G02*
X13150000Y-12950000I-150000J0D01*
G01*
X13150000Y-12950000D02*
G75*
G02*
X13450000Y-12950000I150000J0D01*
G01*
X13450000Y-7450000D02*
G75*
G02*
X13150000Y-7450000I-150000J0D01*
G01*
X13150000Y-7450000D02*
G75*
G02*
X13450000Y-7450000I150000J0D01*
G01*
D11*
D12*
X13385500Y-8347500D02*
X13465500Y-8427500D01*
X13465500Y-8347500D02*
X13385500Y-8427500D01*
X13385500Y-8601500D02*
X13465500Y-8681500D01*
X13465500Y-8601500D02*
X13385500Y-8681500D01*
X13385500Y-8855500D02*
X13465500Y-8935500D01*
X13465500Y-8855500D02*
X13385500Y-8935500D01*
X13385500Y-9109500D02*
X13465500Y-9189500D01*
X13465500Y-9109500D02*
X13385500Y-9189500D01*
X13385500Y-9363500D02*
X13465500Y-9443500D01*
X13465500Y-9363500D02*
X13385500Y-9443500D01*
X13385500Y-9617500D02*
X13465500Y-9697500D01*
X13465500Y-9617500D02*
X13385500Y-9697500D01*
X13385500Y-9871500D02*
X13465500Y-9951500D01*
X13465500Y-9871500D02*
X13385500Y-9951500D01*
X13385500Y-10125500D02*
X13465500Y-10205500D01*
X13465500Y-10125500D02*
X13385500Y-10205500D01*
X13385500Y-10379500D02*
X13465500Y-10459500D01*
X13465500Y-10379500D02*
X13385500Y-10459500D01*
X13385500Y-10633500D02*
X13465500Y-10713500D01*
X13465500Y-10633500D02*
X13385500Y-10713500D01*
X13385500Y-10887500D02*
X13465500Y-10967500D01*
X13465500Y-10887500D02*
X13385500Y-10967500D01*
X13385500Y-11141500D02*
X13465500Y-11221500D01*
X13465500Y-11141500D02*
X13385500Y-11221500D01*
X13385500Y-11395500D02*
X13465500Y-11475500D01*
X13465500Y-11395500D02*
X13385500Y-11475500D01*
X13385500Y-11649500D02*
X13465500Y-11729500D01*
X13465500Y-11649500D02*
X13385500Y-11729500D01*
X13385500Y-11903500D02*
X13465500Y-11983500D01*
X13465500Y-11903500D02*
X13385500Y-11983500D01*
X13879000Y-12310000D02*
X13959000Y-12390000D01*
X13959000Y-12310000D02*
X13879000Y-12390000D01*
X13898000Y-11510000D02*
X13978000Y-11590000D01*
X13978000Y-11510000D02*
X13898000Y-11590000D01*
X13898000Y-11764000D02*
X13978000Y-11844000D01*
X13978000Y-11764000D02*
X13898000Y-11844000D01*
X13910000Y-8360000D02*
X13990000Y-8440000D01*
X13990000Y-8360000D02*
X13910000Y-8440000D01*
X13910000Y-8614000D02*
X13990000Y-8694000D01*
X13990000Y-8614000D02*
X13910000Y-8694000D01*
X13910000Y-9156000D02*
X13990000Y-9236000D01*
X13990000Y-9156000D02*
X13910000Y-9236000D01*
X13910000Y-9410000D02*
X13990000Y-9490000D01*
X13990000Y-9410000D02*
X13910000Y-9490000D01*
X13910000Y-9960000D02*
X13990000Y-10040000D01*
X13990000Y-9960000D02*
X13910000Y-10040000D01*
X13910000Y-10214000D02*
X13990000Y-10294000D01*
X13990000Y-10214000D02*
X13910000Y-10294000D01*
X13910000Y-10760000D02*
X13990000Y-10840000D01*
X13990000Y-10760000D02*
X13910000Y-10840000D01*
X13910000Y-11014000D02*
X13990000Y-11094000D01*
X13990000Y-11014000D02*
X13910000Y-11094000D01*
X14641000Y-12310000D02*
X14721000Y-12390000D01*
X14721000Y-12310000D02*
X14641000Y-12390000D01*
X14660000Y-11510000D02*
X14740000Y-11590000D01*
X14740000Y-11510000D02*
X14660000Y-11590000D01*
X14660000Y-11764000D02*
X14740000Y-11844000D01*
X14740000Y-11764000D02*
X14660000Y-11844000D01*
X14672000Y-8360000D02*
X14752000Y-8440000D01*
X14752000Y-8360000D02*
X14672000Y-8440000D01*
X14672000Y-8614000D02*
X14752000Y-8694000D01*
X14752000Y-8614000D02*
X14672000Y-8694000D01*
X14672000Y-9156000D02*
X14752000Y-9236000D01*
X14752000Y-9156000D02*
X14672000Y-9236000D01*
X14672000Y-9410000D02*
X14752000Y-9490000D01*
X14752000Y-9410000D02*
X14672000Y-9490000D01*
X14672000Y-9960000D02*
X14752000Y-10040000D01*
X14752000Y-9960000D02*
X14672000Y-10040000D01*
X14672000Y-10214000D02*
X14752000Y-10294000D01*
X14752000Y-10214000D02*
X14672000Y-10294000D01*
X14672000Y-10760000D02*
X14752000Y-10840000D01*
X14752000Y-10760000D02*
X14672000Y-10840000D01*
X14672000Y-11014000D02*
X14752000Y-11094000D01*
X14752000Y-11014000D02*
X14672000Y-11094000D01*
X15160000Y-8160000D02*
X15240000Y-8240000D01*
X15240000Y-8160000D02*
X15160000Y-8240000D01*
X15160000Y-8922000D02*
X15240000Y-9002000D01*
X15240000Y-8922000D02*
X15160000Y-9002000D01*
X15160000Y-9210000D02*
X15240000Y-9290000D01*
X15240000Y-9210000D02*
X15160000Y-9290000D01*
X15160000Y-9972000D02*
X15240000Y-10052000D01*
X15240000Y-9972000D02*
X15160000Y-10052000D01*
X15160000Y-10279000D02*
X15240000Y-10359000D01*
X15240000Y-10279000D02*
X15160000Y-10359000D01*
X15160000Y-11041000D02*
X15240000Y-11121000D01*
X15240000Y-11041000D02*
X15160000Y-11121000D01*
X15160000Y-11360000D02*
X15240000Y-11440000D01*
X15240000Y-11360000D02*
X15160000Y-11440000D01*
X15160000Y-12122000D02*
X15240000Y-12202000D01*
X15240000Y-12122000D02*
X15160000Y-12202000D01*
X15925500Y-8347500D02*
X16005500Y-8427500D01*
X16005500Y-8347500D02*
X15925500Y-8427500D01*
X15925500Y-8601500D02*
X16005500Y-8681500D01*
X16005500Y-8601500D02*
X15925500Y-8681500D01*
X15925500Y-8855500D02*
X16005500Y-8935500D01*
X16005500Y-8855500D02*
X15925500Y-8935500D01*
X15925500Y-9109500D02*
X16005500Y-9189500D01*
X16005500Y-9109500D02*
X15925500Y-9189500D01*
X15925500Y-9363500D02*
X16005500Y-9443500D01*
X16005500Y-9363500D02*
X15925500Y-9443500D01*
X15925500Y-9617500D02*
X16005500Y-9697500D01*
X16005500Y-9617500D02*
X15925500Y-9697500D01*
X15925500Y-9871500D02*
X16005500Y-9951500D01*
X16005500Y-9871500D02*
X15925500Y-9951500D01*
X15925500Y-10125500D02*
X16005500Y-10205500D01*
X16005500Y-10125500D02*
X15925500Y-10205500D01*
X15925500Y-10379500D02*
X16005500Y-10459500D01*
X16005500Y-10379500D02*
X15925500Y-10459500D01*
X15925500Y-10633500D02*
X16005500Y-10713500D01*
X16005500Y-10633500D02*
X15925500Y-10713500D01*
X15925500Y-10887500D02*
X16005500Y-10967500D01*
X16005500Y-10887500D02*
X15925500Y-10967500D01*
X15925500Y-11141500D02*
X16005500Y-11221500D01*
X16005500Y-11141500D02*
X15925500Y-11221500D01*
X15925500Y-11395500D02*
X16005500Y-11475500D01*
X16005500Y-11395500D02*
X15925500Y-11475500D01*
X15925500Y-11649500D02*
X16005500Y-11729500D01*
X16005500Y-11649500D02*
X15925500Y-11729500D01*
X15925500Y-11903500D02*
X16005500Y-11983500D01*
X16005500Y-11903500D02*
X15925500Y-11983500D01*
X16310000Y-8079000D02*
X16390000Y-8159000D01*
X16390000Y-8079000D02*
X16310000Y-8159000D01*
X16310000Y-8841000D02*
X16390000Y-8921000D01*
X16390000Y-8841000D02*
X16310000Y-8921000D01*
X16660000Y-8079000D02*
X16740000Y-8159000D01*
X16740000Y-8079000D02*
X16660000Y-8159000D01*
X16660000Y-8841000D02*
X16740000Y-8921000D01*
X16740000Y-8841000D02*
X16660000Y-8921000D01*
X17010000Y-8079000D02*
X17090000Y-8159000D01*
X17090000Y-8079000D02*
X17010000Y-8159000D01*
X17010000Y-8841000D02*
X17090000Y-8921000D01*
X17090000Y-8841000D02*
X17010000Y-8921000D01*
X15141000Y-7350000D02*
G75*
G02*
X15051000Y-7350000I-45000J0D01*
G01*
X15051000Y-7350000D02*
G75*
G02*
X15141000Y-7350000I45000J0D01*
G01*
X15395000Y-7350000D02*
G75*
G02*
X15305000Y-7350000I-45000J0D01*
G01*
X15305000Y-7350000D02*
G75*
G02*
X15395000Y-7350000I45000J0D01*
G01*
X15741000Y-7350000D02*
G75*
G02*
X15651000Y-7350000I-45000J0D01*
G01*
X15651000Y-7350000D02*
G75*
G02*
X15741000Y-7350000I45000J0D01*
G01*
X15995000Y-7350000D02*
G75*
G02*
X15905000Y-7350000I-45000J0D01*
G01*
X15905000Y-7350000D02*
G75*
G02*
X15995000Y-7350000I45000J0D01*
G01*
X16341000Y-7350000D02*
G75*
G02*
X16251000Y-7350000I-45000J0D01*
G01*
X16251000Y-7350000D02*
G75*
G02*
X16341000Y-7350000I45000J0D01*
G01*
X16595000Y-7350000D02*
G75*
G02*
X16505000Y-7350000I-45000J0D01*
G01*
X16505000Y-7350000D02*
G75*
G02*
X16595000Y-7350000I45000J0D01*
G01*
X14196000Y-7800000D02*
X14196000Y-7900000D01*
X14146000Y-7850000D02*
X14246000Y-7850000D01*
X14450000Y-7800000D02*
X14450000Y-7900000D01*
X14400000Y-7850000D02*
X14500000Y-7850000D01*
X16650000Y-9300000D02*
X16650000Y-9400000D01*
X16600000Y-9350000D02*
X16700000Y-9350000D01*
X16650000Y-9554000D02*
X16650000Y-9654000D01*
X16600000Y-9604000D02*
X16700000Y-9604000D01*
X16650000Y-10023500D02*
X16650000Y-10123500D01*
X16600000Y-10073500D02*
X16700000Y-10073500D01*
X16650000Y-10277500D02*
X16650000Y-10377500D01*
X16600000Y-10327500D02*
X16700000Y-10327500D01*
X16650000Y-10723500D02*
X16650000Y-10823500D01*
X16600000Y-10773500D02*
X16700000Y-10773500D01*
X16650000Y-10977500D02*
X16650000Y-11077500D01*
X16600000Y-11027500D02*
X16700000Y-11027500D01*
X16650000Y-11423500D02*
X16650000Y-11523500D01*
X16600000Y-11473500D02*
X16700000Y-11473500D01*
X16650000Y-11677500D02*
X16650000Y-11777500D01*
X16600000Y-11727500D02*
X16700000Y-11727500D01*
X16650000Y-12123500D02*
X16650000Y-12223500D01*
X16600000Y-12173500D02*
X16700000Y-12173500D01*
X16650000Y-12377500D02*
X16650000Y-12477500D01*
X16600000Y-12427500D02*
X16700000Y-12427500D01*
D11*
X13308277Y-13963984D02*
X13308277Y-13763984D01*
X13308277Y-13763984D02*
X13355896Y-13763984D01*
X13355896Y-13763984D02*
X13384467Y-13773508D01*
X13384467Y-13773508D02*
X13403515Y-13792555D01*
X13403515Y-13792555D02*
X13413039Y-13811603D01*
X13413039Y-13811603D02*
X13422562Y-13849698D01*
X13422562Y-13849698D02*
X13422562Y-13878269D01*
X13422562Y-13878269D02*
X13413039Y-13916365D01*
X13413039Y-13916365D02*
X13403515Y-13935412D01*
X13403515Y-13935412D02*
X13384467Y-13954460D01*
X13384467Y-13954460D02*
X13355896Y-13963984D01*
X13355896Y-13963984D02*
X13308277Y-13963984D01*
X13508277Y-13963984D02*
X13508277Y-13830650D01*
X13508277Y-13868746D02*
X13517801Y-13849698D01*
X13517801Y-13849698D02*
X13527324Y-13840174D01*
X13527324Y-13840174D02*
X13546372Y-13830650D01*
X13546372Y-13830650D02*
X13565420Y-13830650D01*
X13632086Y-13963984D02*
X13632086Y-13830650D01*
X13632086Y-13763984D02*
X13622562Y-13773508D01*
X13622562Y-13773508D02*
X13632086Y-13783031D01*
X13632086Y-13783031D02*
X13641610Y-13773508D01*
X13641610Y-13773508D02*
X13632086Y-13763984D01*
X13632086Y-13763984D02*
X13632086Y-13783031D01*
X13755896Y-13963984D02*
X13736848Y-13954460D01*
X13736848Y-13954460D02*
X13727324Y-13935412D01*
X13727324Y-13935412D02*
X13727324Y-13763984D01*
X13860658Y-13963984D02*
X13841610Y-13954460D01*
X13841610Y-13954460D02*
X13832086Y-13935412D01*
X13832086Y-13935412D02*
X13832086Y-13763984D01*
X14089229Y-13963984D02*
X14089229Y-13763984D01*
X14089229Y-13763984D02*
X14155896Y-13906841D01*
X14155896Y-13906841D02*
X14222562Y-13763984D01*
X14222562Y-13763984D02*
X14222562Y-13963984D01*
X14403515Y-13963984D02*
X14403515Y-13859222D01*
X14403515Y-13859222D02*
X14393991Y-13840174D01*
X14393991Y-13840174D02*
X14374943Y-13830650D01*
X14374943Y-13830650D02*
X14336848Y-13830650D01*
X14336848Y-13830650D02*
X14317801Y-13840174D01*
X14403515Y-13954460D02*
X14384467Y-13963984D01*
X14384467Y-13963984D02*
X14336848Y-13963984D01*
X14336848Y-13963984D02*
X14317801Y-13954460D01*
X14317801Y-13954460D02*
X14308277Y-13935412D01*
X14308277Y-13935412D02*
X14308277Y-13916365D01*
X14308277Y-13916365D02*
X14317801Y-13897317D01*
X14317801Y-13897317D02*
X14336848Y-13887793D01*
X14336848Y-13887793D02*
X14384467Y-13887793D01*
X14384467Y-13887793D02*
X14403515Y-13878269D01*
X14498753Y-13830650D02*
X14498753Y-14030650D01*
X14498753Y-13840174D02*
X14517801Y-13830650D01*
X14517801Y-13830650D02*
X14555896Y-13830650D01*
X14555896Y-13830650D02*
X14574943Y-13840174D01*
X14574943Y-13840174D02*
X14584467Y-13849698D01*
X14584467Y-13849698D02*
X14593991Y-13868746D01*
X14593991Y-13868746D02*
X14593991Y-13925888D01*
X14593991Y-13925888D02*
X14584467Y-13944936D01*
X14584467Y-13944936D02*
X14574943Y-13954460D01*
X14574943Y-13954460D02*
X14555896Y-13963984D01*
X14555896Y-13963984D02*
X14517801Y-13963984D01*
X14517801Y-13963984D02*
X14498753Y-13954460D01*
X14679705Y-13944936D02*
X14689229Y-13954460D01*
X14689229Y-13954460D02*
X14679705Y-13963984D01*
X14679705Y-13963984D02*
X14670182Y-13954460D01*
X14670182Y-13954460D02*
X14679705Y-13944936D01*
X14679705Y-13944936D02*
X14679705Y-13963984D01*
X14679705Y-13840174D02*
X14689229Y-13849698D01*
X14689229Y-13849698D02*
X14679705Y-13859222D01*
X14679705Y-13859222D02*
X14670182Y-13849698D01*
X14670182Y-13849698D02*
X14679705Y-13840174D01*
X14679705Y-13840174D02*
X14679705Y-13859222D01*
D12*
X12967500Y-14252500D02*
X13047500Y-14332500D01*
X13047500Y-14252500D02*
X12967500Y-14332500D01*
D11*
X13346372Y-14183984D02*
X13365420Y-14183984D01*
X13365420Y-14183984D02*
X13384467Y-14193508D01*
X13384467Y-14193508D02*
X13393991Y-14203031D01*
X13393991Y-14203031D02*
X13403515Y-14222079D01*
X13403515Y-14222079D02*
X13413039Y-14260174D01*
X13413039Y-14260174D02*
X13413039Y-14307793D01*
X13413039Y-14307793D02*
X13403515Y-14345888D01*
X13403515Y-14345888D02*
X13393991Y-14364936D01*
X13393991Y-14364936D02*
X13384467Y-14374460D01*
X13384467Y-14374460D02*
X13365420Y-14383984D01*
X13365420Y-14383984D02*
X13346372Y-14383984D01*
X13346372Y-14383984D02*
X13327324Y-14374460D01*
X13327324Y-14374460D02*
X13317801Y-14364936D01*
X13317801Y-14364936D02*
X13308277Y-14345888D01*
X13308277Y-14345888D02*
X13298753Y-14307793D01*
X13298753Y-14307793D02*
X13298753Y-14260174D01*
X13298753Y-14260174D02*
X13308277Y-14222079D01*
X13308277Y-14222079D02*
X13317801Y-14203031D01*
X13317801Y-14203031D02*
X13327324Y-14193508D01*
X13327324Y-14193508D02*
X13346372Y-14183984D01*
X13498753Y-14364936D02*
X13508277Y-14374460D01*
X13508277Y-14374460D02*
X13498753Y-14383984D01*
X13498753Y-14383984D02*
X13489229Y-14374460D01*
X13489229Y-14374460D02*
X13498753Y-14364936D01*
X13498753Y-14364936D02*
X13498753Y-14383984D01*
X13622562Y-14269698D02*
X13603515Y-14260174D01*
X13603515Y-14260174D02*
X13593991Y-14250650D01*
X13593991Y-14250650D02*
X13584467Y-14231603D01*
X13584467Y-14231603D02*
X13584467Y-14222079D01*
X13584467Y-14222079D02*
X13593991Y-14203031D01*
X13593991Y-14203031D02*
X13603515Y-14193508D01*
X13603515Y-14193508D02*
X13622562Y-14183984D01*
X13622562Y-14183984D02*
X13660658Y-14183984D01*
X13660658Y-14183984D02*
X13679705Y-14193508D01*
X13679705Y-14193508D02*
X13689229Y-14203031D01*
X13689229Y-14203031D02*
X13698753Y-14222079D01*
X13698753Y-14222079D02*
X13698753Y-14231603D01*
X13698753Y-14231603D02*
X13689229Y-14250650D01*
X13689229Y-14250650D02*
X13679705Y-14260174D01*
X13679705Y-14260174D02*
X13660658Y-14269698D01*
X13660658Y-14269698D02*
X13622562Y-14269698D01*
X13622562Y-14269698D02*
X13603515Y-14279222D01*
X13603515Y-14279222D02*
X13593991Y-14288746D01*
X13593991Y-14288746D02*
X13584467Y-14307793D01*
X13584467Y-14307793D02*
X13584467Y-14345888D01*
X13584467Y-14345888D02*
X13593991Y-14364936D01*
X13593991Y-14364936D02*
X13603515Y-14374460D01*
X13603515Y-14374460D02*
X13622562Y-14383984D01*
X13622562Y-14383984D02*
X13660658Y-14383984D01*
X13660658Y-14383984D02*
X13679705Y-14374460D01*
X13679705Y-14374460D02*
X13689229Y-14364936D01*
X13689229Y-14364936D02*
X13698753Y-14345888D01*
X13698753Y-14345888D02*
X13698753Y-14307793D01*
X13698753Y-14307793D02*
X13689229Y-14288746D01*
X13689229Y-14288746D02*
X13679705Y-14279222D01*
X13679705Y-14279222D02*
X13660658Y-14269698D01*
X13822562Y-14183984D02*
X13841610Y-14183984D01*
X13841610Y-14183984D02*
X13860658Y-14193508D01*
X13860658Y-14193508D02*
X13870182Y-14203031D01*
X13870182Y-14203031D02*
X13879705Y-14222079D01*
X13879705Y-14222079D02*
X13889229Y-14260174D01*
X13889229Y-14260174D02*
X13889229Y-14307793D01*
X13889229Y-14307793D02*
X13879705Y-14345888D01*
X13879705Y-14345888D02*
X13870182Y-14364936D01*
X13870182Y-14364936D02*
X13860658Y-14374460D01*
X13860658Y-14374460D02*
X13841610Y-14383984D01*
X13841610Y-14383984D02*
X13822562Y-14383984D01*
X13822562Y-14383984D02*
X13803515Y-14374460D01*
X13803515Y-14374460D02*
X13793991Y-14364936D01*
X13793991Y-14364936D02*
X13784467Y-14345888D01*
X13784467Y-14345888D02*
X13774943Y-14307793D01*
X13774943Y-14307793D02*
X13774943Y-14260174D01*
X13774943Y-14260174D02*
X13784467Y-14222079D01*
X13784467Y-14222079D02*
X13793991Y-14203031D01*
X13793991Y-14203031D02*
X13803515Y-14193508D01*
X13803515Y-14193508D02*
X13822562Y-14183984D01*
X14013039Y-14183984D02*
X14032086Y-14183984D01*
X14032086Y-14183984D02*
X14051134Y-14193508D01*
X14051134Y-14193508D02*
X14060658Y-14203031D01*
X14060658Y-14203031D02*
X14070182Y-14222079D01*
X14070182Y-14222079D02*
X14079705Y-14260174D01*
X14079705Y-14260174D02*
X14079705Y-14307793D01*
X14079705Y-14307793D02*
X14070182Y-14345888D01*
X14070182Y-14345888D02*
X14060658Y-14364936D01*
X14060658Y-14364936D02*
X14051134Y-14374460D01*
X14051134Y-14374460D02*
X14032086Y-14383984D01*
X14032086Y-14383984D02*
X14013039Y-14383984D01*
X14013039Y-14383984D02*
X13993991Y-14374460D01*
X13993991Y-14374460D02*
X13984467Y-14364936D01*
X13984467Y-14364936D02*
X13974943Y-14345888D01*
X13974943Y-14345888D02*
X13965420Y-14307793D01*
X13965420Y-14307793D02*
X13965420Y-14260174D01*
X13965420Y-14260174D02*
X13974943Y-14222079D01*
X13974943Y-14222079D02*
X13984467Y-14203031D01*
X13984467Y-14203031D02*
X13993991Y-14193508D01*
X13993991Y-14193508D02*
X14013039Y-14183984D01*
X14165420Y-14383984D02*
X14165420Y-14250650D01*
X14165420Y-14269698D02*
X14174943Y-14260174D01*
X14174943Y-14260174D02*
X14193991Y-14250650D01*
X14193991Y-14250650D02*
X14222563Y-14250650D01*
X14222563Y-14250650D02*
X14241610Y-14260174D01*
X14241610Y-14260174D02*
X14251134Y-14279222D01*
X14251134Y-14279222D02*
X14251134Y-14383984D01*
X14251134Y-14279222D02*
X14260658Y-14260174D01*
X14260658Y-14260174D02*
X14279705Y-14250650D01*
X14279705Y-14250650D02*
X14308277Y-14250650D01*
X14308277Y-14250650D02*
X14327324Y-14260174D01*
X14327324Y-14260174D02*
X14336848Y-14279222D01*
X14336848Y-14279222D02*
X14336848Y-14383984D01*
X14432086Y-14383984D02*
X14432086Y-14250650D01*
X14432086Y-14269698D02*
X14441610Y-14260174D01*
X14441610Y-14260174D02*
X14460658Y-14250650D01*
X14460658Y-14250650D02*
X14489229Y-14250650D01*
X14489229Y-14250650D02*
X14508277Y-14260174D01*
X14508277Y-14260174D02*
X14517801Y-14279222D01*
X14517801Y-14279222D02*
X14517801Y-14383984D01*
X14517801Y-14279222D02*
X14527324Y-14260174D01*
X14527324Y-14260174D02*
X14546372Y-14250650D01*
X14546372Y-14250650D02*
X14574943Y-14250650D01*
X14574943Y-14250650D02*
X14593991Y-14260174D01*
X14593991Y-14260174D02*
X14603515Y-14279222D01*
X14603515Y-14279222D02*
X14603515Y-14383984D01*
X14993991Y-14174460D02*
X14822563Y-14431603D01*
X15251134Y-14183984D02*
X15270182Y-14183984D01*
X15270182Y-14183984D02*
X15289229Y-14193508D01*
X15289229Y-14193508D02*
X15298753Y-14203031D01*
X15298753Y-14203031D02*
X15308277Y-14222079D01*
X15308277Y-14222079D02*
X15317801Y-14260174D01*
X15317801Y-14260174D02*
X15317801Y-14307793D01*
X15317801Y-14307793D02*
X15308277Y-14345888D01*
X15308277Y-14345888D02*
X15298753Y-14364936D01*
X15298753Y-14364936D02*
X15289229Y-14374460D01*
X15289229Y-14374460D02*
X15270182Y-14383984D01*
X15270182Y-14383984D02*
X15251134Y-14383984D01*
X15251134Y-14383984D02*
X15232086Y-14374460D01*
X15232086Y-14374460D02*
X15222563Y-14364936D01*
X15222563Y-14364936D02*
X15213039Y-14345888D01*
X15213039Y-14345888D02*
X15203515Y-14307793D01*
X15203515Y-14307793D02*
X15203515Y-14260174D01*
X15203515Y-14260174D02*
X15213039Y-14222079D01*
X15213039Y-14222079D02*
X15222563Y-14203031D01*
X15222563Y-14203031D02*
X15232086Y-14193508D01*
X15232086Y-14193508D02*
X15251134Y-14183984D01*
X15403515Y-14364936D02*
X15413039Y-14374460D01*
X15413039Y-14374460D02*
X15403515Y-14383984D01*
X15403515Y-14383984D02*
X15393991Y-14374460D01*
X15393991Y-14374460D02*
X15403515Y-14364936D01*
X15403515Y-14364936D02*
X15403515Y-14383984D01*
X15536848Y-14183984D02*
X15555896Y-14183984D01*
X15555896Y-14183984D02*
X15574944Y-14193508D01*
X15574944Y-14193508D02*
X15584467Y-14203031D01*
X15584467Y-14203031D02*
X15593991Y-14222079D01*
X15593991Y-14222079D02*
X15603515Y-14260174D01*
X15603515Y-14260174D02*
X15603515Y-14307793D01*
X15603515Y-14307793D02*
X15593991Y-14345888D01*
X15593991Y-14345888D02*
X15584467Y-14364936D01*
X15584467Y-14364936D02*
X15574944Y-14374460D01*
X15574944Y-14374460D02*
X15555896Y-14383984D01*
X15555896Y-14383984D02*
X15536848Y-14383984D01*
X15536848Y-14383984D02*
X15517801Y-14374460D01*
X15517801Y-14374460D02*
X15508277Y-14364936D01*
X15508277Y-14364936D02*
X15498753Y-14345888D01*
X15498753Y-14345888D02*
X15489229Y-14307793D01*
X15489229Y-14307793D02*
X15489229Y-14260174D01*
X15489229Y-14260174D02*
X15498753Y-14222079D01*
X15498753Y-14222079D02*
X15508277Y-14203031D01*
X15508277Y-14203031D02*
X15517801Y-14193508D01*
X15517801Y-14193508D02*
X15536848Y-14183984D01*
X15670182Y-14183984D02*
X15793991Y-14183984D01*
X15793991Y-14183984D02*
X15727325Y-14260174D01*
X15727325Y-14260174D02*
X15755896Y-14260174D01*
X15755896Y-14260174D02*
X15774944Y-14269698D01*
X15774944Y-14269698D02*
X15784467Y-14279222D01*
X15784467Y-14279222D02*
X15793991Y-14298269D01*
X15793991Y-14298269D02*
X15793991Y-14345888D01*
X15793991Y-14345888D02*
X15784467Y-14364936D01*
X15784467Y-14364936D02*
X15774944Y-14374460D01*
X15774944Y-14374460D02*
X15755896Y-14383984D01*
X15755896Y-14383984D02*
X15698753Y-14383984D01*
X15698753Y-14383984D02*
X15679706Y-14374460D01*
X15679706Y-14374460D02*
X15670182Y-14364936D01*
X15984467Y-14383984D02*
X15870182Y-14383984D01*
X15927325Y-14383984D02*
X15927325Y-14183984D01*
X15927325Y-14183984D02*
X15908277Y-14212555D01*
X15908277Y-14212555D02*
X15889229Y-14231603D01*
X15889229Y-14231603D02*
X15870182Y-14241127D01*
X16165420Y-14183984D02*
X16070182Y-14183984D01*
X16070182Y-14183984D02*
X16060658Y-14279222D01*
X16060658Y-14279222D02*
X16070182Y-14269698D01*
X16070182Y-14269698D02*
X16089229Y-14260174D01*
X16089229Y-14260174D02*
X16136848Y-14260174D01*
X16136848Y-14260174D02*
X16155896Y-14269698D01*
X16155896Y-14269698D02*
X16165420Y-14279222D01*
X16165420Y-14279222D02*
X16174944Y-14298269D01*
X16174944Y-14298269D02*
X16174944Y-14345888D01*
X16174944Y-14345888D02*
X16165420Y-14364936D01*
X16165420Y-14364936D02*
X16155896Y-14374460D01*
X16155896Y-14374460D02*
X16136848Y-14383984D01*
X16136848Y-14383984D02*
X16089229Y-14383984D01*
X16089229Y-14383984D02*
X16070182Y-14374460D01*
X16070182Y-14374460D02*
X16060658Y-14364936D01*
X16251134Y-14183984D02*
X16251134Y-14222079D01*
X16327325Y-14183984D02*
X16327325Y-14222079D01*
X16622563Y-14460174D02*
X16613039Y-14450650D01*
X16613039Y-14450650D02*
X16593991Y-14422079D01*
X16593991Y-14422079D02*
X16584468Y-14403031D01*
X16584468Y-14403031D02*
X16574944Y-14374460D01*
X16574944Y-14374460D02*
X16565420Y-14326841D01*
X16565420Y-14326841D02*
X16565420Y-14288746D01*
X16565420Y-14288746D02*
X16574944Y-14241127D01*
X16574944Y-14241127D02*
X16584468Y-14212555D01*
X16584468Y-14212555D02*
X16593991Y-14193508D01*
X16593991Y-14193508D02*
X16613039Y-14164936D01*
X16613039Y-14164936D02*
X16622563Y-14155412D01*
X16784468Y-14183984D02*
X16746372Y-14183984D01*
X16746372Y-14183984D02*
X16727325Y-14193508D01*
X16727325Y-14193508D02*
X16717801Y-14203031D01*
X16717801Y-14203031D02*
X16698753Y-14231603D01*
X16698753Y-14231603D02*
X16689229Y-14269698D01*
X16689229Y-14269698D02*
X16689229Y-14345888D01*
X16689229Y-14345888D02*
X16698753Y-14364936D01*
X16698753Y-14364936D02*
X16708277Y-14374460D01*
X16708277Y-14374460D02*
X16727325Y-14383984D01*
X16727325Y-14383984D02*
X16765420Y-14383984D01*
X16765420Y-14383984D02*
X16784468Y-14374460D01*
X16784468Y-14374460D02*
X16793991Y-14364936D01*
X16793991Y-14364936D02*
X16803515Y-14345888D01*
X16803515Y-14345888D02*
X16803515Y-14298269D01*
X16803515Y-14298269D02*
X16793991Y-14279222D01*
X16793991Y-14279222D02*
X16784468Y-14269698D01*
X16784468Y-14269698D02*
X16765420Y-14260174D01*
X16765420Y-14260174D02*
X16727325Y-14260174D01*
X16727325Y-14260174D02*
X16708277Y-14269698D01*
X16708277Y-14269698D02*
X16698753Y-14279222D01*
X16698753Y-14279222D02*
X16689229Y-14298269D01*
X16974944Y-14183984D02*
X16936849Y-14183984D01*
X16936849Y-14183984D02*
X16917801Y-14193508D01*
X16917801Y-14193508D02*
X16908277Y-14203031D01*
X16908277Y-14203031D02*
X16889230Y-14231603D01*
X16889230Y-14231603D02*
X16879706Y-14269698D01*
X16879706Y-14269698D02*
X16879706Y-14345888D01*
X16879706Y-14345888D02*
X16889230Y-14364936D01*
X16889230Y-14364936D02*
X16898753Y-14374460D01*
X16898753Y-14374460D02*
X16917801Y-14383984D01*
X16917801Y-14383984D02*
X16955896Y-14383984D01*
X16955896Y-14383984D02*
X16974944Y-14374460D01*
X16974944Y-14374460D02*
X16984468Y-14364936D01*
X16984468Y-14364936D02*
X16993991Y-14345888D01*
X16993991Y-14345888D02*
X16993991Y-14298269D01*
X16993991Y-14298269D02*
X16984468Y-14279222D01*
X16984468Y-14279222D02*
X16974944Y-14269698D01*
X16974944Y-14269698D02*
X16955896Y-14260174D01*
X16955896Y-14260174D02*
X16917801Y-14260174D01*
X16917801Y-14260174D02*
X16898753Y-14269698D01*
X16898753Y-14269698D02*
X16889230Y-14279222D01*
X16889230Y-14279222D02*
X16879706Y-14298269D01*
X17232087Y-14383984D02*
X17232087Y-14183984D01*
X17317801Y-14383984D02*
X17317801Y-14279222D01*
X17317801Y-14279222D02*
X17308277Y-14260174D01*
X17308277Y-14260174D02*
X17289230Y-14250650D01*
X17289230Y-14250650D02*
X17260658Y-14250650D01*
X17260658Y-14250650D02*
X17241611Y-14260174D01*
X17241611Y-14260174D02*
X17232087Y-14269698D01*
X17441611Y-14383984D02*
X17422563Y-14374460D01*
X17422563Y-14374460D02*
X17413039Y-14364936D01*
X17413039Y-14364936D02*
X17403515Y-14345888D01*
X17403515Y-14345888D02*
X17403515Y-14288746D01*
X17403515Y-14288746D02*
X17413039Y-14269698D01*
X17413039Y-14269698D02*
X17422563Y-14260174D01*
X17422563Y-14260174D02*
X17441611Y-14250650D01*
X17441611Y-14250650D02*
X17470182Y-14250650D01*
X17470182Y-14250650D02*
X17489230Y-14260174D01*
X17489230Y-14260174D02*
X17498753Y-14269698D01*
X17498753Y-14269698D02*
X17508277Y-14288746D01*
X17508277Y-14288746D02*
X17508277Y-14345888D01*
X17508277Y-14345888D02*
X17498753Y-14364936D01*
X17498753Y-14364936D02*
X17489230Y-14374460D01*
X17489230Y-14374460D02*
X17470182Y-14383984D01*
X17470182Y-14383984D02*
X17441611Y-14383984D01*
X17622563Y-14383984D02*
X17603515Y-14374460D01*
X17603515Y-14374460D02*
X17593992Y-14355412D01*
X17593992Y-14355412D02*
X17593992Y-14183984D01*
X17774944Y-14374460D02*
X17755896Y-14383984D01*
X17755896Y-14383984D02*
X17717801Y-14383984D01*
X17717801Y-14383984D02*
X17698753Y-14374460D01*
X17698753Y-14374460D02*
X17689230Y-14355412D01*
X17689230Y-14355412D02*
X17689230Y-14279222D01*
X17689230Y-14279222D02*
X17698753Y-14260174D01*
X17698753Y-14260174D02*
X17717801Y-14250650D01*
X17717801Y-14250650D02*
X17755896Y-14250650D01*
X17755896Y-14250650D02*
X17774944Y-14260174D01*
X17774944Y-14260174D02*
X17784468Y-14279222D01*
X17784468Y-14279222D02*
X17784468Y-14298269D01*
X17784468Y-14298269D02*
X17689230Y-14317317D01*
X17860658Y-14374460D02*
X17879706Y-14383984D01*
X17879706Y-14383984D02*
X17917801Y-14383984D01*
X17917801Y-14383984D02*
X17936849Y-14374460D01*
X17936849Y-14374460D02*
X17946373Y-14355412D01*
X17946373Y-14355412D02*
X17946373Y-14345888D01*
X17946373Y-14345888D02*
X17936849Y-14326841D01*
X17936849Y-14326841D02*
X17917801Y-14317317D01*
X17917801Y-14317317D02*
X17889230Y-14317317D01*
X17889230Y-14317317D02*
X17870182Y-14307793D01*
X17870182Y-14307793D02*
X17860658Y-14288746D01*
X17860658Y-14288746D02*
X17860658Y-14279222D01*
X17860658Y-14279222D02*
X17870182Y-14260174D01*
X17870182Y-14260174D02*
X17889230Y-14250650D01*
X17889230Y-14250650D02*
X17917801Y-14250650D01*
X17917801Y-14250650D02*
X17936849Y-14260174D01*
X18013039Y-14460174D02*
X18022563Y-14450650D01*
X18022563Y-14450650D02*
X18041611Y-14422079D01*
X18041611Y-14422079D02*
X18051134Y-14403031D01*
X18051134Y-14403031D02*
X18060658Y-14374460D01*
X18060658Y-14374460D02*
X18070182Y-14326841D01*
X18070182Y-14326841D02*
X18070182Y-14288746D01*
X18070182Y-14288746D02*
X18060658Y-14241127D01*
X18060658Y-14241127D02*
X18051134Y-14212555D01*
X18051134Y-14212555D02*
X18041611Y-14193508D01*
X18041611Y-14193508D02*
X18022563Y-14164936D01*
X18022563Y-14164936D02*
X18013039Y-14155412D01*
D12*
X13047500Y-14556500D02*
G75*
G02*
X12957500Y-14556500I-45000J0D01*
G01*
X12957500Y-14556500D02*
G75*
G02*
X13047500Y-14556500I45000J0D01*
G01*
D11*
X13346372Y-14447984D02*
X13365420Y-14447984D01*
X13365420Y-14447984D02*
X13384467Y-14457508D01*
X13384467Y-14457508D02*
X13393991Y-14467031D01*
X13393991Y-14467031D02*
X13403515Y-14486079D01*
X13403515Y-14486079D02*
X13413039Y-14524174D01*
X13413039Y-14524174D02*
X13413039Y-14571793D01*
X13413039Y-14571793D02*
X13403515Y-14609888D01*
X13403515Y-14609888D02*
X13393991Y-14628936D01*
X13393991Y-14628936D02*
X13384467Y-14638460D01*
X13384467Y-14638460D02*
X13365420Y-14647984D01*
X13365420Y-14647984D02*
X13346372Y-14647984D01*
X13346372Y-14647984D02*
X13327324Y-14638460D01*
X13327324Y-14638460D02*
X13317801Y-14628936D01*
X13317801Y-14628936D02*
X13308277Y-14609888D01*
X13308277Y-14609888D02*
X13298753Y-14571793D01*
X13298753Y-14571793D02*
X13298753Y-14524174D01*
X13298753Y-14524174D02*
X13308277Y-14486079D01*
X13308277Y-14486079D02*
X13317801Y-14467031D01*
X13317801Y-14467031D02*
X13327324Y-14457508D01*
X13327324Y-14457508D02*
X13346372Y-14447984D01*
X13498753Y-14628936D02*
X13508277Y-14638460D01*
X13508277Y-14638460D02*
X13498753Y-14647984D01*
X13498753Y-14647984D02*
X13489229Y-14638460D01*
X13489229Y-14638460D02*
X13498753Y-14628936D01*
X13498753Y-14628936D02*
X13498753Y-14647984D01*
X13603515Y-14647984D02*
X13641610Y-14647984D01*
X13641610Y-14647984D02*
X13660658Y-14638460D01*
X13660658Y-14638460D02*
X13670182Y-14628936D01*
X13670182Y-14628936D02*
X13689229Y-14600365D01*
X13689229Y-14600365D02*
X13698753Y-14562269D01*
X13698753Y-14562269D02*
X13698753Y-14486079D01*
X13698753Y-14486079D02*
X13689229Y-14467031D01*
X13689229Y-14467031D02*
X13679705Y-14457508D01*
X13679705Y-14457508D02*
X13660658Y-14447984D01*
X13660658Y-14447984D02*
X13622562Y-14447984D01*
X13622562Y-14447984D02*
X13603515Y-14457508D01*
X13603515Y-14457508D02*
X13593991Y-14467031D01*
X13593991Y-14467031D02*
X13584467Y-14486079D01*
X13584467Y-14486079D02*
X13584467Y-14533698D01*
X13584467Y-14533698D02*
X13593991Y-14552746D01*
X13593991Y-14552746D02*
X13603515Y-14562269D01*
X13603515Y-14562269D02*
X13622562Y-14571793D01*
X13622562Y-14571793D02*
X13660658Y-14571793D01*
X13660658Y-14571793D02*
X13679705Y-14562269D01*
X13679705Y-14562269D02*
X13689229Y-14552746D01*
X13689229Y-14552746D02*
X13698753Y-14533698D01*
X13822562Y-14447984D02*
X13841610Y-14447984D01*
X13841610Y-14447984D02*
X13860658Y-14457508D01*
X13860658Y-14457508D02*
X13870182Y-14467031D01*
X13870182Y-14467031D02*
X13879705Y-14486079D01*
X13879705Y-14486079D02*
X13889229Y-14524174D01*
X13889229Y-14524174D02*
X13889229Y-14571793D01*
X13889229Y-14571793D02*
X13879705Y-14609888D01*
X13879705Y-14609888D02*
X13870182Y-14628936D01*
X13870182Y-14628936D02*
X13860658Y-14638460D01*
X13860658Y-14638460D02*
X13841610Y-14647984D01*
X13841610Y-14647984D02*
X13822562Y-14647984D01*
X13822562Y-14647984D02*
X13803515Y-14638460D01*
X13803515Y-14638460D02*
X13793991Y-14628936D01*
X13793991Y-14628936D02*
X13784467Y-14609888D01*
X13784467Y-14609888D02*
X13774943Y-14571793D01*
X13774943Y-14571793D02*
X13774943Y-14524174D01*
X13774943Y-14524174D02*
X13784467Y-14486079D01*
X13784467Y-14486079D02*
X13793991Y-14467031D01*
X13793991Y-14467031D02*
X13803515Y-14457508D01*
X13803515Y-14457508D02*
X13822562Y-14447984D01*
X14013039Y-14447984D02*
X14032086Y-14447984D01*
X14032086Y-14447984D02*
X14051134Y-14457508D01*
X14051134Y-14457508D02*
X14060658Y-14467031D01*
X14060658Y-14467031D02*
X14070182Y-14486079D01*
X14070182Y-14486079D02*
X14079705Y-14524174D01*
X14079705Y-14524174D02*
X14079705Y-14571793D01*
X14079705Y-14571793D02*
X14070182Y-14609888D01*
X14070182Y-14609888D02*
X14060658Y-14628936D01*
X14060658Y-14628936D02*
X14051134Y-14638460D01*
X14051134Y-14638460D02*
X14032086Y-14647984D01*
X14032086Y-14647984D02*
X14013039Y-14647984D01*
X14013039Y-14647984D02*
X13993991Y-14638460D01*
X13993991Y-14638460D02*
X13984467Y-14628936D01*
X13984467Y-14628936D02*
X13974943Y-14609888D01*
X13974943Y-14609888D02*
X13965420Y-14571793D01*
X13965420Y-14571793D02*
X13965420Y-14524174D01*
X13965420Y-14524174D02*
X13974943Y-14486079D01*
X13974943Y-14486079D02*
X13984467Y-14467031D01*
X13984467Y-14467031D02*
X13993991Y-14457508D01*
X13993991Y-14457508D02*
X14013039Y-14447984D01*
X14165420Y-14647984D02*
X14165420Y-14514650D01*
X14165420Y-14533698D02*
X14174943Y-14524174D01*
X14174943Y-14524174D02*
X14193991Y-14514650D01*
X14193991Y-14514650D02*
X14222563Y-14514650D01*
X14222563Y-14514650D02*
X14241610Y-14524174D01*
X14241610Y-14524174D02*
X14251134Y-14543222D01*
X14251134Y-14543222D02*
X14251134Y-14647984D01*
X14251134Y-14543222D02*
X14260658Y-14524174D01*
X14260658Y-14524174D02*
X14279705Y-14514650D01*
X14279705Y-14514650D02*
X14308277Y-14514650D01*
X14308277Y-14514650D02*
X14327324Y-14524174D01*
X14327324Y-14524174D02*
X14336848Y-14543222D01*
X14336848Y-14543222D02*
X14336848Y-14647984D01*
X14432086Y-14647984D02*
X14432086Y-14514650D01*
X14432086Y-14533698D02*
X14441610Y-14524174D01*
X14441610Y-14524174D02*
X14460658Y-14514650D01*
X14460658Y-14514650D02*
X14489229Y-14514650D01*
X14489229Y-14514650D02*
X14508277Y-14524174D01*
X14508277Y-14524174D02*
X14517801Y-14543222D01*
X14517801Y-14543222D02*
X14517801Y-14647984D01*
X14517801Y-14543222D02*
X14527324Y-14524174D01*
X14527324Y-14524174D02*
X14546372Y-14514650D01*
X14546372Y-14514650D02*
X14574943Y-14514650D01*
X14574943Y-14514650D02*
X14593991Y-14524174D01*
X14593991Y-14524174D02*
X14603515Y-14543222D01*
X14603515Y-14543222D02*
X14603515Y-14647984D01*
X14993991Y-14438460D02*
X14822563Y-14695603D01*
X15251134Y-14447984D02*
X15270182Y-14447984D01*
X15270182Y-14447984D02*
X15289229Y-14457508D01*
X15289229Y-14457508D02*
X15298753Y-14467031D01*
X15298753Y-14467031D02*
X15308277Y-14486079D01*
X15308277Y-14486079D02*
X15317801Y-14524174D01*
X15317801Y-14524174D02*
X15317801Y-14571793D01*
X15317801Y-14571793D02*
X15308277Y-14609888D01*
X15308277Y-14609888D02*
X15298753Y-14628936D01*
X15298753Y-14628936D02*
X15289229Y-14638460D01*
X15289229Y-14638460D02*
X15270182Y-14647984D01*
X15270182Y-14647984D02*
X15251134Y-14647984D01*
X15251134Y-14647984D02*
X15232086Y-14638460D01*
X15232086Y-14638460D02*
X15222563Y-14628936D01*
X15222563Y-14628936D02*
X15213039Y-14609888D01*
X15213039Y-14609888D02*
X15203515Y-14571793D01*
X15203515Y-14571793D02*
X15203515Y-14524174D01*
X15203515Y-14524174D02*
X15213039Y-14486079D01*
X15213039Y-14486079D02*
X15222563Y-14467031D01*
X15222563Y-14467031D02*
X15232086Y-14457508D01*
X15232086Y-14457508D02*
X15251134Y-14447984D01*
X15403515Y-14628936D02*
X15413039Y-14638460D01*
X15413039Y-14638460D02*
X15403515Y-14647984D01*
X15403515Y-14647984D02*
X15393991Y-14638460D01*
X15393991Y-14638460D02*
X15403515Y-14628936D01*
X15403515Y-14628936D02*
X15403515Y-14647984D01*
X15536848Y-14447984D02*
X15555896Y-14447984D01*
X15555896Y-14447984D02*
X15574944Y-14457508D01*
X15574944Y-14457508D02*
X15584467Y-14467031D01*
X15584467Y-14467031D02*
X15593991Y-14486079D01*
X15593991Y-14486079D02*
X15603515Y-14524174D01*
X15603515Y-14524174D02*
X15603515Y-14571793D01*
X15603515Y-14571793D02*
X15593991Y-14609888D01*
X15593991Y-14609888D02*
X15584467Y-14628936D01*
X15584467Y-14628936D02*
X15574944Y-14638460D01*
X15574944Y-14638460D02*
X15555896Y-14647984D01*
X15555896Y-14647984D02*
X15536848Y-14647984D01*
X15536848Y-14647984D02*
X15517801Y-14638460D01*
X15517801Y-14638460D02*
X15508277Y-14628936D01*
X15508277Y-14628936D02*
X15498753Y-14609888D01*
X15498753Y-14609888D02*
X15489229Y-14571793D01*
X15489229Y-14571793D02*
X15489229Y-14524174D01*
X15489229Y-14524174D02*
X15498753Y-14486079D01*
X15498753Y-14486079D02*
X15508277Y-14467031D01*
X15508277Y-14467031D02*
X15517801Y-14457508D01*
X15517801Y-14457508D02*
X15536848Y-14447984D01*
X15670182Y-14447984D02*
X15793991Y-14447984D01*
X15793991Y-14447984D02*
X15727325Y-14524174D01*
X15727325Y-14524174D02*
X15755896Y-14524174D01*
X15755896Y-14524174D02*
X15774944Y-14533698D01*
X15774944Y-14533698D02*
X15784467Y-14543222D01*
X15784467Y-14543222D02*
X15793991Y-14562269D01*
X15793991Y-14562269D02*
X15793991Y-14609888D01*
X15793991Y-14609888D02*
X15784467Y-14628936D01*
X15784467Y-14628936D02*
X15774944Y-14638460D01*
X15774944Y-14638460D02*
X15755896Y-14647984D01*
X15755896Y-14647984D02*
X15698753Y-14647984D01*
X15698753Y-14647984D02*
X15679706Y-14638460D01*
X15679706Y-14638460D02*
X15670182Y-14628936D01*
X15974944Y-14447984D02*
X15879706Y-14447984D01*
X15879706Y-14447984D02*
X15870182Y-14543222D01*
X15870182Y-14543222D02*
X15879706Y-14533698D01*
X15879706Y-14533698D02*
X15898753Y-14524174D01*
X15898753Y-14524174D02*
X15946372Y-14524174D01*
X15946372Y-14524174D02*
X15965420Y-14533698D01*
X15965420Y-14533698D02*
X15974944Y-14543222D01*
X15974944Y-14543222D02*
X15984467Y-14562269D01*
X15984467Y-14562269D02*
X15984467Y-14609888D01*
X15984467Y-14609888D02*
X15974944Y-14628936D01*
X15974944Y-14628936D02*
X15965420Y-14638460D01*
X15965420Y-14638460D02*
X15946372Y-14647984D01*
X15946372Y-14647984D02*
X15898753Y-14647984D01*
X15898753Y-14647984D02*
X15879706Y-14638460D01*
X15879706Y-14638460D02*
X15870182Y-14628936D01*
X16155896Y-14514650D02*
X16155896Y-14647984D01*
X16108277Y-14438460D02*
X16060658Y-14581317D01*
X16060658Y-14581317D02*
X16184467Y-14581317D01*
X16251134Y-14447984D02*
X16251134Y-14486079D01*
X16327325Y-14447984D02*
X16327325Y-14486079D01*
X16622563Y-14724174D02*
X16613039Y-14714650D01*
X16613039Y-14714650D02*
X16593991Y-14686079D01*
X16593991Y-14686079D02*
X16584468Y-14667031D01*
X16584468Y-14667031D02*
X16574944Y-14638460D01*
X16574944Y-14638460D02*
X16565420Y-14590841D01*
X16565420Y-14590841D02*
X16565420Y-14552746D01*
X16565420Y-14552746D02*
X16574944Y-14505127D01*
X16574944Y-14505127D02*
X16584468Y-14476555D01*
X16584468Y-14476555D02*
X16593991Y-14457508D01*
X16593991Y-14457508D02*
X16613039Y-14428936D01*
X16613039Y-14428936D02*
X16622563Y-14419412D01*
X16784468Y-14447984D02*
X16746372Y-14447984D01*
X16746372Y-14447984D02*
X16727325Y-14457508D01*
X16727325Y-14457508D02*
X16717801Y-14467031D01*
X16717801Y-14467031D02*
X16698753Y-14495603D01*
X16698753Y-14495603D02*
X16689229Y-14533698D01*
X16689229Y-14533698D02*
X16689229Y-14609888D01*
X16689229Y-14609888D02*
X16698753Y-14628936D01*
X16698753Y-14628936D02*
X16708277Y-14638460D01*
X16708277Y-14638460D02*
X16727325Y-14647984D01*
X16727325Y-14647984D02*
X16765420Y-14647984D01*
X16765420Y-14647984D02*
X16784468Y-14638460D01*
X16784468Y-14638460D02*
X16793991Y-14628936D01*
X16793991Y-14628936D02*
X16803515Y-14609888D01*
X16803515Y-14609888D02*
X16803515Y-14562269D01*
X16803515Y-14562269D02*
X16793991Y-14543222D01*
X16793991Y-14543222D02*
X16784468Y-14533698D01*
X16784468Y-14533698D02*
X16765420Y-14524174D01*
X16765420Y-14524174D02*
X16727325Y-14524174D01*
X16727325Y-14524174D02*
X16708277Y-14533698D01*
X16708277Y-14533698D02*
X16698753Y-14543222D01*
X16698753Y-14543222D02*
X16689229Y-14562269D01*
X17041611Y-14647984D02*
X17041611Y-14447984D01*
X17127325Y-14647984D02*
X17127325Y-14543222D01*
X17127325Y-14543222D02*
X17117801Y-14524174D01*
X17117801Y-14524174D02*
X17098753Y-14514650D01*
X17098753Y-14514650D02*
X17070182Y-14514650D01*
X17070182Y-14514650D02*
X17051134Y-14524174D01*
X17051134Y-14524174D02*
X17041611Y-14533698D01*
X17251134Y-14647984D02*
X17232087Y-14638460D01*
X17232087Y-14638460D02*
X17222563Y-14628936D01*
X17222563Y-14628936D02*
X17213039Y-14609888D01*
X17213039Y-14609888D02*
X17213039Y-14552746D01*
X17213039Y-14552746D02*
X17222563Y-14533698D01*
X17222563Y-14533698D02*
X17232087Y-14524174D01*
X17232087Y-14524174D02*
X17251134Y-14514650D01*
X17251134Y-14514650D02*
X17279706Y-14514650D01*
X17279706Y-14514650D02*
X17298753Y-14524174D01*
X17298753Y-14524174D02*
X17308277Y-14533698D01*
X17308277Y-14533698D02*
X17317801Y-14552746D01*
X17317801Y-14552746D02*
X17317801Y-14609888D01*
X17317801Y-14609888D02*
X17308277Y-14628936D01*
X17308277Y-14628936D02*
X17298753Y-14638460D01*
X17298753Y-14638460D02*
X17279706Y-14647984D01*
X17279706Y-14647984D02*
X17251134Y-14647984D01*
X17432087Y-14647984D02*
X17413039Y-14638460D01*
X17413039Y-14638460D02*
X17403515Y-14619412D01*
X17403515Y-14619412D02*
X17403515Y-14447984D01*
X17584468Y-14638460D02*
X17565420Y-14647984D01*
X17565420Y-14647984D02*
X17527325Y-14647984D01*
X17527325Y-14647984D02*
X17508277Y-14638460D01*
X17508277Y-14638460D02*
X17498753Y-14619412D01*
X17498753Y-14619412D02*
X17498753Y-14543222D01*
X17498753Y-14543222D02*
X17508277Y-14524174D01*
X17508277Y-14524174D02*
X17527325Y-14514650D01*
X17527325Y-14514650D02*
X17565420Y-14514650D01*
X17565420Y-14514650D02*
X17584468Y-14524174D01*
X17584468Y-14524174D02*
X17593992Y-14543222D01*
X17593992Y-14543222D02*
X17593992Y-14562269D01*
X17593992Y-14562269D02*
X17498753Y-14581317D01*
X17670182Y-14638460D02*
X17689230Y-14647984D01*
X17689230Y-14647984D02*
X17727325Y-14647984D01*
X17727325Y-14647984D02*
X17746373Y-14638460D01*
X17746373Y-14638460D02*
X17755896Y-14619412D01*
X17755896Y-14619412D02*
X17755896Y-14609888D01*
X17755896Y-14609888D02*
X17746373Y-14590841D01*
X17746373Y-14590841D02*
X17727325Y-14581317D01*
X17727325Y-14581317D02*
X17698753Y-14581317D01*
X17698753Y-14581317D02*
X17679706Y-14571793D01*
X17679706Y-14571793D02*
X17670182Y-14552746D01*
X17670182Y-14552746D02*
X17670182Y-14543222D01*
X17670182Y-14543222D02*
X17679706Y-14524174D01*
X17679706Y-14524174D02*
X17698753Y-14514650D01*
X17698753Y-14514650D02*
X17727325Y-14514650D01*
X17727325Y-14514650D02*
X17746373Y-14524174D01*
X17822563Y-14724174D02*
X17832087Y-14714650D01*
X17832087Y-14714650D02*
X17851134Y-14686079D01*
X17851134Y-14686079D02*
X17860658Y-14667031D01*
X17860658Y-14667031D02*
X17870182Y-14638460D01*
X17870182Y-14638460D02*
X17879706Y-14590841D01*
X17879706Y-14590841D02*
X17879706Y-14552746D01*
X17879706Y-14552746D02*
X17870182Y-14505127D01*
X17870182Y-14505127D02*
X17860658Y-14476555D01*
X17860658Y-14476555D02*
X17851134Y-14457508D01*
X17851134Y-14457508D02*
X17832087Y-14428936D01*
X17832087Y-14428936D02*
X17822563Y-14419412D01*
D12*
X12997500Y-14770500D02*
X12997500Y-14870500D01*
X12947500Y-14820500D02*
X13047500Y-14820500D01*
D11*
X13413039Y-14911984D02*
X13298753Y-14911984D01*
X13355896Y-14911984D02*
X13355896Y-14711984D01*
X13355896Y-14711984D02*
X13336848Y-14740555D01*
X13336848Y-14740555D02*
X13317801Y-14759603D01*
X13317801Y-14759603D02*
X13298753Y-14769127D01*
X13498753Y-14892936D02*
X13508277Y-14902460D01*
X13508277Y-14902460D02*
X13498753Y-14911984D01*
X13498753Y-14911984D02*
X13489229Y-14902460D01*
X13489229Y-14902460D02*
X13498753Y-14892936D01*
X13498753Y-14892936D02*
X13498753Y-14911984D01*
X13632086Y-14711984D02*
X13651134Y-14711984D01*
X13651134Y-14711984D02*
X13670182Y-14721508D01*
X13670182Y-14721508D02*
X13679705Y-14731031D01*
X13679705Y-14731031D02*
X13689229Y-14750079D01*
X13689229Y-14750079D02*
X13698753Y-14788174D01*
X13698753Y-14788174D02*
X13698753Y-14835793D01*
X13698753Y-14835793D02*
X13689229Y-14873888D01*
X13689229Y-14873888D02*
X13679705Y-14892936D01*
X13679705Y-14892936D02*
X13670182Y-14902460D01*
X13670182Y-14902460D02*
X13651134Y-14911984D01*
X13651134Y-14911984D02*
X13632086Y-14911984D01*
X13632086Y-14911984D02*
X13613039Y-14902460D01*
X13613039Y-14902460D02*
X13603515Y-14892936D01*
X13603515Y-14892936D02*
X13593991Y-14873888D01*
X13593991Y-14873888D02*
X13584467Y-14835793D01*
X13584467Y-14835793D02*
X13584467Y-14788174D01*
X13584467Y-14788174D02*
X13593991Y-14750079D01*
X13593991Y-14750079D02*
X13603515Y-14731031D01*
X13603515Y-14731031D02*
X13613039Y-14721508D01*
X13613039Y-14721508D02*
X13632086Y-14711984D01*
X13822562Y-14711984D02*
X13841610Y-14711984D01*
X13841610Y-14711984D02*
X13860658Y-14721508D01*
X13860658Y-14721508D02*
X13870182Y-14731031D01*
X13870182Y-14731031D02*
X13879705Y-14750079D01*
X13879705Y-14750079D02*
X13889229Y-14788174D01*
X13889229Y-14788174D02*
X13889229Y-14835793D01*
X13889229Y-14835793D02*
X13879705Y-14873888D01*
X13879705Y-14873888D02*
X13870182Y-14892936D01*
X13870182Y-14892936D02*
X13860658Y-14902460D01*
X13860658Y-14902460D02*
X13841610Y-14911984D01*
X13841610Y-14911984D02*
X13822562Y-14911984D01*
X13822562Y-14911984D02*
X13803515Y-14902460D01*
X13803515Y-14902460D02*
X13793991Y-14892936D01*
X13793991Y-14892936D02*
X13784467Y-14873888D01*
X13784467Y-14873888D02*
X13774943Y-14835793D01*
X13774943Y-14835793D02*
X13774943Y-14788174D01*
X13774943Y-14788174D02*
X13784467Y-14750079D01*
X13784467Y-14750079D02*
X13793991Y-14731031D01*
X13793991Y-14731031D02*
X13803515Y-14721508D01*
X13803515Y-14721508D02*
X13822562Y-14711984D01*
X14013039Y-14711984D02*
X14032086Y-14711984D01*
X14032086Y-14711984D02*
X14051134Y-14721508D01*
X14051134Y-14721508D02*
X14060658Y-14731031D01*
X14060658Y-14731031D02*
X14070182Y-14750079D01*
X14070182Y-14750079D02*
X14079705Y-14788174D01*
X14079705Y-14788174D02*
X14079705Y-14835793D01*
X14079705Y-14835793D02*
X14070182Y-14873888D01*
X14070182Y-14873888D02*
X14060658Y-14892936D01*
X14060658Y-14892936D02*
X14051134Y-14902460D01*
X14051134Y-14902460D02*
X14032086Y-14911984D01*
X14032086Y-14911984D02*
X14013039Y-14911984D01*
X14013039Y-14911984D02*
X13993991Y-14902460D01*
X13993991Y-14902460D02*
X13984467Y-14892936D01*
X13984467Y-14892936D02*
X13974943Y-14873888D01*
X13974943Y-14873888D02*
X13965420Y-14835793D01*
X13965420Y-14835793D02*
X13965420Y-14788174D01*
X13965420Y-14788174D02*
X13974943Y-14750079D01*
X13974943Y-14750079D02*
X13984467Y-14731031D01*
X13984467Y-14731031D02*
X13993991Y-14721508D01*
X13993991Y-14721508D02*
X14013039Y-14711984D01*
X14165420Y-14911984D02*
X14165420Y-14778650D01*
X14165420Y-14797698D02*
X14174943Y-14788174D01*
X14174943Y-14788174D02*
X14193991Y-14778650D01*
X14193991Y-14778650D02*
X14222563Y-14778650D01*
X14222563Y-14778650D02*
X14241610Y-14788174D01*
X14241610Y-14788174D02*
X14251134Y-14807222D01*
X14251134Y-14807222D02*
X14251134Y-14911984D01*
X14251134Y-14807222D02*
X14260658Y-14788174D01*
X14260658Y-14788174D02*
X14279705Y-14778650D01*
X14279705Y-14778650D02*
X14308277Y-14778650D01*
X14308277Y-14778650D02*
X14327324Y-14788174D01*
X14327324Y-14788174D02*
X14336848Y-14807222D01*
X14336848Y-14807222D02*
X14336848Y-14911984D01*
X14432086Y-14911984D02*
X14432086Y-14778650D01*
X14432086Y-14797698D02*
X14441610Y-14788174D01*
X14441610Y-14788174D02*
X14460658Y-14778650D01*
X14460658Y-14778650D02*
X14489229Y-14778650D01*
X14489229Y-14778650D02*
X14508277Y-14788174D01*
X14508277Y-14788174D02*
X14517801Y-14807222D01*
X14517801Y-14807222D02*
X14517801Y-14911984D01*
X14517801Y-14807222D02*
X14527324Y-14788174D01*
X14527324Y-14788174D02*
X14546372Y-14778650D01*
X14546372Y-14778650D02*
X14574943Y-14778650D01*
X14574943Y-14778650D02*
X14593991Y-14788174D01*
X14593991Y-14788174D02*
X14603515Y-14807222D01*
X14603515Y-14807222D02*
X14603515Y-14911984D01*
X14993991Y-14702460D02*
X14822563Y-14959603D01*
X15251134Y-14711984D02*
X15270182Y-14711984D01*
X15270182Y-14711984D02*
X15289229Y-14721508D01*
X15289229Y-14721508D02*
X15298753Y-14731031D01*
X15298753Y-14731031D02*
X15308277Y-14750079D01*
X15308277Y-14750079D02*
X15317801Y-14788174D01*
X15317801Y-14788174D02*
X15317801Y-14835793D01*
X15317801Y-14835793D02*
X15308277Y-14873888D01*
X15308277Y-14873888D02*
X15298753Y-14892936D01*
X15298753Y-14892936D02*
X15289229Y-14902460D01*
X15289229Y-14902460D02*
X15270182Y-14911984D01*
X15270182Y-14911984D02*
X15251134Y-14911984D01*
X15251134Y-14911984D02*
X15232086Y-14902460D01*
X15232086Y-14902460D02*
X15222563Y-14892936D01*
X15222563Y-14892936D02*
X15213039Y-14873888D01*
X15213039Y-14873888D02*
X15203515Y-14835793D01*
X15203515Y-14835793D02*
X15203515Y-14788174D01*
X15203515Y-14788174D02*
X15213039Y-14750079D01*
X15213039Y-14750079D02*
X15222563Y-14731031D01*
X15222563Y-14731031D02*
X15232086Y-14721508D01*
X15232086Y-14721508D02*
X15251134Y-14711984D01*
X15403515Y-14892936D02*
X15413039Y-14902460D01*
X15413039Y-14902460D02*
X15403515Y-14911984D01*
X15403515Y-14911984D02*
X15393991Y-14902460D01*
X15393991Y-14902460D02*
X15403515Y-14892936D01*
X15403515Y-14892936D02*
X15403515Y-14911984D01*
X15536848Y-14711984D02*
X15555896Y-14711984D01*
X15555896Y-14711984D02*
X15574944Y-14721508D01*
X15574944Y-14721508D02*
X15584467Y-14731031D01*
X15584467Y-14731031D02*
X15593991Y-14750079D01*
X15593991Y-14750079D02*
X15603515Y-14788174D01*
X15603515Y-14788174D02*
X15603515Y-14835793D01*
X15603515Y-14835793D02*
X15593991Y-14873888D01*
X15593991Y-14873888D02*
X15584467Y-14892936D01*
X15584467Y-14892936D02*
X15574944Y-14902460D01*
X15574944Y-14902460D02*
X15555896Y-14911984D01*
X15555896Y-14911984D02*
X15536848Y-14911984D01*
X15536848Y-14911984D02*
X15517801Y-14902460D01*
X15517801Y-14902460D02*
X15508277Y-14892936D01*
X15508277Y-14892936D02*
X15498753Y-14873888D01*
X15498753Y-14873888D02*
X15489229Y-14835793D01*
X15489229Y-14835793D02*
X15489229Y-14788174D01*
X15489229Y-14788174D02*
X15498753Y-14750079D01*
X15498753Y-14750079D02*
X15508277Y-14731031D01*
X15508277Y-14731031D02*
X15517801Y-14721508D01*
X15517801Y-14721508D02*
X15536848Y-14711984D01*
X15670182Y-14711984D02*
X15793991Y-14711984D01*
X15793991Y-14711984D02*
X15727325Y-14788174D01*
X15727325Y-14788174D02*
X15755896Y-14788174D01*
X15755896Y-14788174D02*
X15774944Y-14797698D01*
X15774944Y-14797698D02*
X15784467Y-14807222D01*
X15784467Y-14807222D02*
X15793991Y-14826269D01*
X15793991Y-14826269D02*
X15793991Y-14873888D01*
X15793991Y-14873888D02*
X15784467Y-14892936D01*
X15784467Y-14892936D02*
X15774944Y-14902460D01*
X15774944Y-14902460D02*
X15755896Y-14911984D01*
X15755896Y-14911984D02*
X15698753Y-14911984D01*
X15698753Y-14911984D02*
X15679706Y-14902460D01*
X15679706Y-14902460D02*
X15670182Y-14892936D01*
X15889229Y-14911984D02*
X15927325Y-14911984D01*
X15927325Y-14911984D02*
X15946372Y-14902460D01*
X15946372Y-14902460D02*
X15955896Y-14892936D01*
X15955896Y-14892936D02*
X15974944Y-14864365D01*
X15974944Y-14864365D02*
X15984467Y-14826269D01*
X15984467Y-14826269D02*
X15984467Y-14750079D01*
X15984467Y-14750079D02*
X15974944Y-14731031D01*
X15974944Y-14731031D02*
X15965420Y-14721508D01*
X15965420Y-14721508D02*
X15946372Y-14711984D01*
X15946372Y-14711984D02*
X15908277Y-14711984D01*
X15908277Y-14711984D02*
X15889229Y-14721508D01*
X15889229Y-14721508D02*
X15879706Y-14731031D01*
X15879706Y-14731031D02*
X15870182Y-14750079D01*
X15870182Y-14750079D02*
X15870182Y-14797698D01*
X15870182Y-14797698D02*
X15879706Y-14816746D01*
X15879706Y-14816746D02*
X15889229Y-14826269D01*
X15889229Y-14826269D02*
X15908277Y-14835793D01*
X15908277Y-14835793D02*
X15946372Y-14835793D01*
X15946372Y-14835793D02*
X15965420Y-14826269D01*
X15965420Y-14826269D02*
X15974944Y-14816746D01*
X15974944Y-14816746D02*
X15984467Y-14797698D01*
X16155896Y-14778650D02*
X16155896Y-14911984D01*
X16108277Y-14702460D02*
X16060658Y-14845317D01*
X16060658Y-14845317D02*
X16184467Y-14845317D01*
X16251134Y-14711984D02*
X16251134Y-14750079D01*
X16327325Y-14711984D02*
X16327325Y-14750079D01*
X16622563Y-14988174D02*
X16613039Y-14978650D01*
X16613039Y-14978650D02*
X16593991Y-14950079D01*
X16593991Y-14950079D02*
X16584468Y-14931031D01*
X16584468Y-14931031D02*
X16574944Y-14902460D01*
X16574944Y-14902460D02*
X16565420Y-14854841D01*
X16565420Y-14854841D02*
X16565420Y-14816746D01*
X16565420Y-14816746D02*
X16574944Y-14769127D01*
X16574944Y-14769127D02*
X16584468Y-14740555D01*
X16584468Y-14740555D02*
X16593991Y-14721508D01*
X16593991Y-14721508D02*
X16613039Y-14692936D01*
X16613039Y-14692936D02*
X16622563Y-14683412D01*
X16803515Y-14911984D02*
X16689229Y-14911984D01*
X16746372Y-14911984D02*
X16746372Y-14711984D01*
X16746372Y-14711984D02*
X16727325Y-14740555D01*
X16727325Y-14740555D02*
X16708277Y-14759603D01*
X16708277Y-14759603D02*
X16689229Y-14769127D01*
X16879706Y-14731031D02*
X16889230Y-14721508D01*
X16889230Y-14721508D02*
X16908277Y-14711984D01*
X16908277Y-14711984D02*
X16955896Y-14711984D01*
X16955896Y-14711984D02*
X16974944Y-14721508D01*
X16974944Y-14721508D02*
X16984468Y-14731031D01*
X16984468Y-14731031D02*
X16993991Y-14750079D01*
X16993991Y-14750079D02*
X16993991Y-14769127D01*
X16993991Y-14769127D02*
X16984468Y-14797698D01*
X16984468Y-14797698D02*
X16870182Y-14911984D01*
X16870182Y-14911984D02*
X16993991Y-14911984D01*
X17232087Y-14911984D02*
X17232087Y-14711984D01*
X17317801Y-14911984D02*
X17317801Y-14807222D01*
X17317801Y-14807222D02*
X17308277Y-14788174D01*
X17308277Y-14788174D02*
X17289230Y-14778650D01*
X17289230Y-14778650D02*
X17260658Y-14778650D01*
X17260658Y-14778650D02*
X17241611Y-14788174D01*
X17241611Y-14788174D02*
X17232087Y-14797698D01*
X17441611Y-14911984D02*
X17422563Y-14902460D01*
X17422563Y-14902460D02*
X17413039Y-14892936D01*
X17413039Y-14892936D02*
X17403515Y-14873888D01*
X17403515Y-14873888D02*
X17403515Y-14816746D01*
X17403515Y-14816746D02*
X17413039Y-14797698D01*
X17413039Y-14797698D02*
X17422563Y-14788174D01*
X17422563Y-14788174D02*
X17441611Y-14778650D01*
X17441611Y-14778650D02*
X17470182Y-14778650D01*
X17470182Y-14778650D02*
X17489230Y-14788174D01*
X17489230Y-14788174D02*
X17498753Y-14797698D01*
X17498753Y-14797698D02*
X17508277Y-14816746D01*
X17508277Y-14816746D02*
X17508277Y-14873888D01*
X17508277Y-14873888D02*
X17498753Y-14892936D01*
X17498753Y-14892936D02*
X17489230Y-14902460D01*
X17489230Y-14902460D02*
X17470182Y-14911984D01*
X17470182Y-14911984D02*
X17441611Y-14911984D01*
X17622563Y-14911984D02*
X17603515Y-14902460D01*
X17603515Y-14902460D02*
X17593992Y-14883412D01*
X17593992Y-14883412D02*
X17593992Y-14711984D01*
X17774944Y-14902460D02*
X17755896Y-14911984D01*
X17755896Y-14911984D02*
X17717801Y-14911984D01*
X17717801Y-14911984D02*
X17698753Y-14902460D01*
X17698753Y-14902460D02*
X17689230Y-14883412D01*
X17689230Y-14883412D02*
X17689230Y-14807222D01*
X17689230Y-14807222D02*
X17698753Y-14788174D01*
X17698753Y-14788174D02*
X17717801Y-14778650D01*
X17717801Y-14778650D02*
X17755896Y-14778650D01*
X17755896Y-14778650D02*
X17774944Y-14788174D01*
X17774944Y-14788174D02*
X17784468Y-14807222D01*
X17784468Y-14807222D02*
X17784468Y-14826269D01*
X17784468Y-14826269D02*
X17689230Y-14845317D01*
X17860658Y-14902460D02*
X17879706Y-14911984D01*
X17879706Y-14911984D02*
X17917801Y-14911984D01*
X17917801Y-14911984D02*
X17936849Y-14902460D01*
X17936849Y-14902460D02*
X17946373Y-14883412D01*
X17946373Y-14883412D02*
X17946373Y-14873888D01*
X17946373Y-14873888D02*
X17936849Y-14854841D01*
X17936849Y-14854841D02*
X17917801Y-14845317D01*
X17917801Y-14845317D02*
X17889230Y-14845317D01*
X17889230Y-14845317D02*
X17870182Y-14835793D01*
X17870182Y-14835793D02*
X17860658Y-14816746D01*
X17860658Y-14816746D02*
X17860658Y-14807222D01*
X17860658Y-14807222D02*
X17870182Y-14788174D01*
X17870182Y-14788174D02*
X17889230Y-14778650D01*
X17889230Y-14778650D02*
X17917801Y-14778650D01*
X17917801Y-14778650D02*
X17936849Y-14788174D01*
X18013039Y-14988174D02*
X18022563Y-14978650D01*
X18022563Y-14978650D02*
X18041611Y-14950079D01*
X18041611Y-14950079D02*
X18051134Y-14931031D01*
X18051134Y-14931031D02*
X18060658Y-14902460D01*
X18060658Y-14902460D02*
X18070182Y-14854841D01*
X18070182Y-14854841D02*
X18070182Y-14816746D01*
X18070182Y-14816746D02*
X18060658Y-14769127D01*
X18060658Y-14769127D02*
X18051134Y-14740555D01*
X18051134Y-14740555D02*
X18041611Y-14721508D01*
X18041611Y-14721508D02*
X18022563Y-14692936D01*
X18022563Y-14692936D02*
X18013039Y-14683412D01*
M02*
