M48
; DRILL file {KiCad 8.0.6} date 2025-10-25T19:25:59+0200
; FORMAT={-:-/ absolute / metric / decimal}
; #@! TF.CreationDate,2025-10-25T19:25:59+02:00
; #@! TF.GenerationSoftware,Kicad,Pcbnew,8.0.6
; #@! TF.FileFunction,Plated,1,2,PTH
FMAT,2
METRIC
; #@! TA.AperFunction,Plated,PTH,ComponentDrill
T1C0.800
; #@! TA.AperFunction,Plated,PTH,ComponentDrill
T2C0.900
; #@! TA.AperFunction,Plated,PTH,ComponentDrill
T3C1.000
%
G90
G05
T1
X134.255Y-83.875
X134.255Y-86.415
X134.255Y-88.955
X134.255Y-91.495
X134.255Y-94.035
X134.255Y-96.575
X134.255Y-99.115
X134.255Y-101.655
X134.255Y-104.195
X134.255Y-106.735
X134.255Y-109.275
X134.255Y-111.815
X134.255Y-114.355
X134.255Y-116.895
X134.255Y-119.435
X139.19Y-123.5
X139.38Y-115.5
X139.38Y-118.04
X139.5Y-84.0
X139.5Y-86.54
X139.5Y-91.96
X139.5Y-94.5
X139.5Y-100.0
X139.5Y-102.54
X139.5Y-108.0
X139.5Y-110.54
X146.81Y-123.5
X147.0Y-115.5
X147.0Y-118.04
X147.12Y-84.0
X147.12Y-86.54
X147.12Y-91.96
X147.12Y-94.5
X147.12Y-100.0
X147.12Y-102.54
X147.12Y-108.0
X147.12Y-110.54
X152.0Y-82.0
X152.0Y-89.62
X152.0Y-92.5
X152.0Y-100.12
X152.0Y-103.19
X152.0Y-110.81
X152.0Y-114.0
X152.0Y-121.62
X159.655Y-83.875
X159.655Y-86.415
X159.655Y-88.955
X159.655Y-91.495
X159.655Y-94.035
X159.655Y-96.575
X159.655Y-99.115
X159.655Y-101.655
X159.655Y-104.195
X159.655Y-106.735
X159.655Y-109.275
X159.655Y-111.815
X159.655Y-114.355
X159.655Y-116.895
X159.655Y-119.435
X163.5Y-81.19
X163.5Y-88.81
X167.0Y-81.19
X167.0Y-88.81
X170.5Y-81.19
X170.5Y-88.81
T2
X150.96Y-73.5
X153.5Y-73.5
X156.96Y-73.5
X159.5Y-73.5
X162.96Y-73.5
X165.5Y-73.5
T3
X141.96Y-78.5
X144.5Y-78.5
X166.5Y-93.5
X166.5Y-96.04
X166.5Y-100.735
X166.5Y-103.275
X166.5Y-107.735
X166.5Y-110.275
X166.5Y-114.735
X166.5Y-117.275
X166.5Y-121.735
X166.5Y-124.275
M30
