G04 #@! TF.GenerationSoftware,KiCad,Pcbnew,8.0.6*
G04 #@! TF.CreationDate,2025-10-25T19:24:46+02:00*
G04 #@! TF.ProjectId,COSMO Adapter v1.0,434f534d-4f20-4416-9461-707465722076,rev?*
G04 #@! TF.SameCoordinates,Original*
G04 #@! TF.FileFunction,Legend,Bot*
G04 #@! TF.FilePolarity,Positive*
%FSLAX46Y46*%
G04 Gerber Fmt 4.6, Leading zero omitted, Abs format (unit mm)*
G04 Created by KiCad (PCBNEW 8.0.6) date 2025-10-25 19:24:46*
%MOMM*%
%LPD*%
G01*
G04 APERTURE LIST*
%ADD10C,0.150000*%
%ADD11C,0.120000*%
%ADD12R,1.700000X1.700000*%
%ADD13O,1.700000X1.700000*%
%ADD14C,1.600000*%
%ADD15O,1.600000X1.600000*%
%ADD16R,1.800000X1.800000*%
%ADD17C,1.800000*%
%ADD18R,1.600000X1.600000*%
G04 APERTURE END LIST*
D10*
X143166666Y-123954819D02*
X143499999Y-123478628D01*
X143738094Y-123954819D02*
X143738094Y-122954819D01*
X143738094Y-122954819D02*
X143357142Y-122954819D01*
X143357142Y-122954819D02*
X143261904Y-123002438D01*
X143261904Y-123002438D02*
X143214285Y-123050057D01*
X143214285Y-123050057D02*
X143166666Y-123145295D01*
X143166666Y-123145295D02*
X143166666Y-123288152D01*
X143166666Y-123288152D02*
X143214285Y-123383390D01*
X143214285Y-123383390D02*
X143261904Y-123431009D01*
X143261904Y-123431009D02*
X143357142Y-123478628D01*
X143357142Y-123478628D02*
X143738094Y-123478628D01*
X142261904Y-122954819D02*
X142738094Y-122954819D01*
X142738094Y-122954819D02*
X142785713Y-123431009D01*
X142785713Y-123431009D02*
X142738094Y-123383390D01*
X142738094Y-123383390D02*
X142642856Y-123335771D01*
X142642856Y-123335771D02*
X142404761Y-123335771D01*
X142404761Y-123335771D02*
X142309523Y-123383390D01*
X142309523Y-123383390D02*
X142261904Y-123431009D01*
X142261904Y-123431009D02*
X142214285Y-123526247D01*
X142214285Y-123526247D02*
X142214285Y-123764342D01*
X142214285Y-123764342D02*
X142261904Y-123859580D01*
X142261904Y-123859580D02*
X142309523Y-123907200D01*
X142309523Y-123907200D02*
X142404761Y-123954819D01*
X142404761Y-123954819D02*
X142642856Y-123954819D01*
X142642856Y-123954819D02*
X142738094Y-123907200D01*
X142738094Y-123907200D02*
X142785713Y-123859580D01*
X164968094Y-70994819D02*
X164968094Y-69994819D01*
X164968094Y-69994819D02*
X164729999Y-69994819D01*
X164729999Y-69994819D02*
X164587142Y-70042438D01*
X164587142Y-70042438D02*
X164491904Y-70137676D01*
X164491904Y-70137676D02*
X164444285Y-70232914D01*
X164444285Y-70232914D02*
X164396666Y-70423390D01*
X164396666Y-70423390D02*
X164396666Y-70566247D01*
X164396666Y-70566247D02*
X164444285Y-70756723D01*
X164444285Y-70756723D02*
X164491904Y-70851961D01*
X164491904Y-70851961D02*
X164587142Y-70947200D01*
X164587142Y-70947200D02*
X164729999Y-70994819D01*
X164729999Y-70994819D02*
X164968094Y-70994819D01*
X163444285Y-70994819D02*
X164015713Y-70994819D01*
X163729999Y-70994819D02*
X163729999Y-69994819D01*
X163729999Y-69994819D02*
X163825237Y-70137676D01*
X163825237Y-70137676D02*
X163920475Y-70232914D01*
X163920475Y-70232914D02*
X164015713Y-70280533D01*
X152454819Y-85643333D02*
X151978628Y-85310000D01*
X152454819Y-85071905D02*
X151454819Y-85071905D01*
X151454819Y-85071905D02*
X151454819Y-85452857D01*
X151454819Y-85452857D02*
X151502438Y-85548095D01*
X151502438Y-85548095D02*
X151550057Y-85595714D01*
X151550057Y-85595714D02*
X151645295Y-85643333D01*
X151645295Y-85643333D02*
X151788152Y-85643333D01*
X151788152Y-85643333D02*
X151883390Y-85595714D01*
X151883390Y-85595714D02*
X151931009Y-85548095D01*
X151931009Y-85548095D02*
X151978628Y-85452857D01*
X151978628Y-85452857D02*
X151978628Y-85071905D01*
X151550057Y-86024286D02*
X151502438Y-86071905D01*
X151502438Y-86071905D02*
X151454819Y-86167143D01*
X151454819Y-86167143D02*
X151454819Y-86405238D01*
X151454819Y-86405238D02*
X151502438Y-86500476D01*
X151502438Y-86500476D02*
X151550057Y-86548095D01*
X151550057Y-86548095D02*
X151645295Y-86595714D01*
X151645295Y-86595714D02*
X151740533Y-86595714D01*
X151740533Y-86595714D02*
X151883390Y-86548095D01*
X151883390Y-86548095D02*
X152454819Y-85976667D01*
X152454819Y-85976667D02*
X152454819Y-86595714D01*
X152454819Y-117643333D02*
X151978628Y-117310000D01*
X152454819Y-117071905D02*
X151454819Y-117071905D01*
X151454819Y-117071905D02*
X151454819Y-117452857D01*
X151454819Y-117452857D02*
X151502438Y-117548095D01*
X151502438Y-117548095D02*
X151550057Y-117595714D01*
X151550057Y-117595714D02*
X151645295Y-117643333D01*
X151645295Y-117643333D02*
X151788152Y-117643333D01*
X151788152Y-117643333D02*
X151883390Y-117595714D01*
X151883390Y-117595714D02*
X151931009Y-117548095D01*
X151931009Y-117548095D02*
X151978628Y-117452857D01*
X151978628Y-117452857D02*
X151978628Y-117071905D01*
X151788152Y-118500476D02*
X152454819Y-118500476D01*
X151407200Y-118262381D02*
X152121485Y-118024286D01*
X152121485Y-118024286D02*
X152121485Y-118643333D01*
X143951904Y-116219819D02*
X143951904Y-117029342D01*
X143951904Y-117029342D02*
X143904285Y-117124580D01*
X143904285Y-117124580D02*
X143856666Y-117172200D01*
X143856666Y-117172200D02*
X143761428Y-117219819D01*
X143761428Y-117219819D02*
X143570952Y-117219819D01*
X143570952Y-117219819D02*
X143475714Y-117172200D01*
X143475714Y-117172200D02*
X143428095Y-117124580D01*
X143428095Y-117124580D02*
X143380476Y-117029342D01*
X143380476Y-117029342D02*
X143380476Y-116219819D01*
X142428095Y-116219819D02*
X142904285Y-116219819D01*
X142904285Y-116219819D02*
X142951904Y-116696009D01*
X142951904Y-116696009D02*
X142904285Y-116648390D01*
X142904285Y-116648390D02*
X142809047Y-116600771D01*
X142809047Y-116600771D02*
X142570952Y-116600771D01*
X142570952Y-116600771D02*
X142475714Y-116648390D01*
X142475714Y-116648390D02*
X142428095Y-116696009D01*
X142428095Y-116696009D02*
X142380476Y-116791247D01*
X142380476Y-116791247D02*
X142380476Y-117029342D01*
X142380476Y-117029342D02*
X142428095Y-117124580D01*
X142428095Y-117124580D02*
X142475714Y-117172200D01*
X142475714Y-117172200D02*
X142570952Y-117219819D01*
X142570952Y-117219819D02*
X142809047Y-117219819D01*
X142809047Y-117219819D02*
X142904285Y-117172200D01*
X142904285Y-117172200D02*
X142951904Y-117124580D01*
X158968094Y-70994819D02*
X158968094Y-69994819D01*
X158968094Y-69994819D02*
X158729999Y-69994819D01*
X158729999Y-69994819D02*
X158587142Y-70042438D01*
X158587142Y-70042438D02*
X158491904Y-70137676D01*
X158491904Y-70137676D02*
X158444285Y-70232914D01*
X158444285Y-70232914D02*
X158396666Y-70423390D01*
X158396666Y-70423390D02*
X158396666Y-70566247D01*
X158396666Y-70566247D02*
X158444285Y-70756723D01*
X158444285Y-70756723D02*
X158491904Y-70851961D01*
X158491904Y-70851961D02*
X158587142Y-70947200D01*
X158587142Y-70947200D02*
X158729999Y-70994819D01*
X158729999Y-70994819D02*
X158968094Y-70994819D01*
X158015713Y-70090057D02*
X157968094Y-70042438D01*
X157968094Y-70042438D02*
X157872856Y-69994819D01*
X157872856Y-69994819D02*
X157634761Y-69994819D01*
X157634761Y-69994819D02*
X157539523Y-70042438D01*
X157539523Y-70042438D02*
X157491904Y-70090057D01*
X157491904Y-70090057D02*
X157444285Y-70185295D01*
X157444285Y-70185295D02*
X157444285Y-70280533D01*
X157444285Y-70280533D02*
X157491904Y-70423390D01*
X157491904Y-70423390D02*
X158063332Y-70994819D01*
X158063332Y-70994819D02*
X157444285Y-70994819D01*
X144071904Y-92914819D02*
X144071904Y-93724342D01*
X144071904Y-93724342D02*
X144024285Y-93819580D01*
X144024285Y-93819580D02*
X143976666Y-93867200D01*
X143976666Y-93867200D02*
X143881428Y-93914819D01*
X143881428Y-93914819D02*
X143690952Y-93914819D01*
X143690952Y-93914819D02*
X143595714Y-93867200D01*
X143595714Y-93867200D02*
X143548095Y-93819580D01*
X143548095Y-93819580D02*
X143500476Y-93724342D01*
X143500476Y-93724342D02*
X143500476Y-92914819D01*
X143071904Y-93010057D02*
X143024285Y-92962438D01*
X143024285Y-92962438D02*
X142929047Y-92914819D01*
X142929047Y-92914819D02*
X142690952Y-92914819D01*
X142690952Y-92914819D02*
X142595714Y-92962438D01*
X142595714Y-92962438D02*
X142548095Y-93010057D01*
X142548095Y-93010057D02*
X142500476Y-93105295D01*
X142500476Y-93105295D02*
X142500476Y-93200533D01*
X142500476Y-93200533D02*
X142548095Y-93343390D01*
X142548095Y-93343390D02*
X143119523Y-93914819D01*
X143119523Y-93914819D02*
X142500476Y-93914819D01*
X152968094Y-70994819D02*
X152968094Y-69994819D01*
X152968094Y-69994819D02*
X152729999Y-69994819D01*
X152729999Y-69994819D02*
X152587142Y-70042438D01*
X152587142Y-70042438D02*
X152491904Y-70137676D01*
X152491904Y-70137676D02*
X152444285Y-70232914D01*
X152444285Y-70232914D02*
X152396666Y-70423390D01*
X152396666Y-70423390D02*
X152396666Y-70566247D01*
X152396666Y-70566247D02*
X152444285Y-70756723D01*
X152444285Y-70756723D02*
X152491904Y-70851961D01*
X152491904Y-70851961D02*
X152587142Y-70947200D01*
X152587142Y-70947200D02*
X152729999Y-70994819D01*
X152729999Y-70994819D02*
X152968094Y-70994819D01*
X152063332Y-69994819D02*
X151444285Y-69994819D01*
X151444285Y-69994819D02*
X151777618Y-70375771D01*
X151777618Y-70375771D02*
X151634761Y-70375771D01*
X151634761Y-70375771D02*
X151539523Y-70423390D01*
X151539523Y-70423390D02*
X151491904Y-70471009D01*
X151491904Y-70471009D02*
X151444285Y-70566247D01*
X151444285Y-70566247D02*
X151444285Y-70804342D01*
X151444285Y-70804342D02*
X151491904Y-70899580D01*
X151491904Y-70899580D02*
X151539523Y-70947200D01*
X151539523Y-70947200D02*
X151634761Y-70994819D01*
X151634761Y-70994819D02*
X151920475Y-70994819D01*
X151920475Y-70994819D02*
X152015713Y-70947200D01*
X152015713Y-70947200D02*
X152063332Y-70899580D01*
X144071904Y-108719819D02*
X144071904Y-109529342D01*
X144071904Y-109529342D02*
X144024285Y-109624580D01*
X144024285Y-109624580D02*
X143976666Y-109672200D01*
X143976666Y-109672200D02*
X143881428Y-109719819D01*
X143881428Y-109719819D02*
X143690952Y-109719819D01*
X143690952Y-109719819D02*
X143595714Y-109672200D01*
X143595714Y-109672200D02*
X143548095Y-109624580D01*
X143548095Y-109624580D02*
X143500476Y-109529342D01*
X143500476Y-109529342D02*
X143500476Y-108719819D01*
X142595714Y-109053152D02*
X142595714Y-109719819D01*
X142833809Y-108672200D02*
X143071904Y-109386485D01*
X143071904Y-109386485D02*
X142452857Y-109386485D01*
X152454819Y-106833333D02*
X151978628Y-106500000D01*
X152454819Y-106261905D02*
X151454819Y-106261905D01*
X151454819Y-106261905D02*
X151454819Y-106642857D01*
X151454819Y-106642857D02*
X151502438Y-106738095D01*
X151502438Y-106738095D02*
X151550057Y-106785714D01*
X151550057Y-106785714D02*
X151645295Y-106833333D01*
X151645295Y-106833333D02*
X151788152Y-106833333D01*
X151788152Y-106833333D02*
X151883390Y-106785714D01*
X151883390Y-106785714D02*
X151931009Y-106738095D01*
X151931009Y-106738095D02*
X151978628Y-106642857D01*
X151978628Y-106642857D02*
X151978628Y-106261905D01*
X151454819Y-107166667D02*
X151454819Y-107785714D01*
X151454819Y-107785714D02*
X151835771Y-107452381D01*
X151835771Y-107452381D02*
X151835771Y-107595238D01*
X151835771Y-107595238D02*
X151883390Y-107690476D01*
X151883390Y-107690476D02*
X151931009Y-107738095D01*
X151931009Y-107738095D02*
X152026247Y-107785714D01*
X152026247Y-107785714D02*
X152264342Y-107785714D01*
X152264342Y-107785714D02*
X152359580Y-107738095D01*
X152359580Y-107738095D02*
X152407200Y-107690476D01*
X152407200Y-107690476D02*
X152454819Y-107595238D01*
X152454819Y-107595238D02*
X152454819Y-107309524D01*
X152454819Y-107309524D02*
X152407200Y-107214286D01*
X152407200Y-107214286D02*
X152359580Y-107166667D01*
X144061904Y-100719819D02*
X144061904Y-101529342D01*
X144061904Y-101529342D02*
X144014285Y-101624580D01*
X144014285Y-101624580D02*
X143966666Y-101672200D01*
X143966666Y-101672200D02*
X143871428Y-101719819D01*
X143871428Y-101719819D02*
X143680952Y-101719819D01*
X143680952Y-101719819D02*
X143585714Y-101672200D01*
X143585714Y-101672200D02*
X143538095Y-101624580D01*
X143538095Y-101624580D02*
X143490476Y-101529342D01*
X143490476Y-101529342D02*
X143490476Y-100719819D01*
X143109523Y-100719819D02*
X142490476Y-100719819D01*
X142490476Y-100719819D02*
X142823809Y-101100771D01*
X142823809Y-101100771D02*
X142680952Y-101100771D01*
X142680952Y-101100771D02*
X142585714Y-101148390D01*
X142585714Y-101148390D02*
X142538095Y-101196009D01*
X142538095Y-101196009D02*
X142490476Y-101291247D01*
X142490476Y-101291247D02*
X142490476Y-101529342D01*
X142490476Y-101529342D02*
X142538095Y-101624580D01*
X142538095Y-101624580D02*
X142585714Y-101672200D01*
X142585714Y-101672200D02*
X142680952Y-101719819D01*
X142680952Y-101719819D02*
X142966666Y-101719819D01*
X142966666Y-101719819D02*
X143061904Y-101672200D01*
X143061904Y-101672200D02*
X143109523Y-101624580D01*
X144071904Y-84719819D02*
X144071904Y-85529342D01*
X144071904Y-85529342D02*
X144024285Y-85624580D01*
X144024285Y-85624580D02*
X143976666Y-85672200D01*
X143976666Y-85672200D02*
X143881428Y-85719819D01*
X143881428Y-85719819D02*
X143690952Y-85719819D01*
X143690952Y-85719819D02*
X143595714Y-85672200D01*
X143595714Y-85672200D02*
X143548095Y-85624580D01*
X143548095Y-85624580D02*
X143500476Y-85529342D01*
X143500476Y-85529342D02*
X143500476Y-84719819D01*
X142500476Y-85719819D02*
X143071904Y-85719819D01*
X142786190Y-85719819D02*
X142786190Y-84719819D01*
X142786190Y-84719819D02*
X142881428Y-84862676D01*
X142881428Y-84862676D02*
X142976666Y-84957914D01*
X142976666Y-84957914D02*
X143071904Y-85005533D01*
X152454819Y-96143333D02*
X151978628Y-95810000D01*
X152454819Y-95571905D02*
X151454819Y-95571905D01*
X151454819Y-95571905D02*
X151454819Y-95952857D01*
X151454819Y-95952857D02*
X151502438Y-96048095D01*
X151502438Y-96048095D02*
X151550057Y-96095714D01*
X151550057Y-96095714D02*
X151645295Y-96143333D01*
X151645295Y-96143333D02*
X151788152Y-96143333D01*
X151788152Y-96143333D02*
X151883390Y-96095714D01*
X151883390Y-96095714D02*
X151931009Y-96048095D01*
X151931009Y-96048095D02*
X151978628Y-95952857D01*
X151978628Y-95952857D02*
X151978628Y-95571905D01*
X152454819Y-97095714D02*
X152454819Y-96524286D01*
X152454819Y-96810000D02*
X151454819Y-96810000D01*
X151454819Y-96810000D02*
X151597676Y-96714762D01*
X151597676Y-96714762D02*
X151692914Y-96619524D01*
X151692914Y-96619524D02*
X151740533Y-96524286D01*
D11*
X139730000Y-122130000D02*
X139730000Y-122460000D01*
X139730000Y-124870000D02*
X139730000Y-124540000D01*
X146270000Y-122130000D02*
X139730000Y-122130000D01*
X146270000Y-122460000D02*
X146270000Y-122130000D01*
X146270000Y-124540000D02*
X146270000Y-124870000D01*
X146270000Y-124870000D02*
X139730000Y-124870000D01*
X165790000Y-72420000D02*
X165790000Y-72264000D01*
X165790000Y-74736000D02*
X165790000Y-74580000D01*
X162557665Y-72421392D02*
G75*
G02*
X165790000Y-72264484I1672335J-1078608D01*
G01*
X163188870Y-72420163D02*
G75*
G02*
X165270961Y-72420000I1041130J-1079837D01*
G01*
X165270961Y-74580000D02*
G75*
G02*
X163188870Y-74579837I-1040961J1080000D01*
G01*
X165790000Y-74735516D02*
G75*
G02*
X162557665Y-74578608I-1560000J1235516D01*
G01*
X150630000Y-82540000D02*
X150630000Y-89080000D01*
X150630000Y-89080000D02*
X150960000Y-89080000D01*
X150960000Y-82540000D02*
X150630000Y-82540000D01*
X153040000Y-82540000D02*
X153370000Y-82540000D01*
X153370000Y-82540000D02*
X153370000Y-89080000D01*
X153370000Y-89080000D02*
X153040000Y-89080000D01*
X150630000Y-114540000D02*
X150630000Y-121080000D01*
X150630000Y-121080000D02*
X150960000Y-121080000D01*
X150960000Y-114540000D02*
X150630000Y-114540000D01*
X153040000Y-114540000D02*
X153370000Y-114540000D01*
X153370000Y-114540000D02*
X153370000Y-121080000D01*
X153370000Y-121080000D02*
X153040000Y-121080000D01*
X140540000Y-114170000D02*
X140540000Y-119370000D01*
X140540000Y-119370000D02*
X142190000Y-119370000D01*
X144190000Y-119370000D02*
X145840000Y-119370000D01*
X145840000Y-114170000D02*
X140540000Y-114170000D01*
X145840000Y-119370000D02*
X145840000Y-114170000D01*
X142190000Y-119370000D02*
G75*
G02*
X144190000Y-119370000I1000000J0D01*
G01*
X159790000Y-72420000D02*
X159790000Y-72264000D01*
X159790000Y-74736000D02*
X159790000Y-74580000D01*
X156557665Y-72421392D02*
G75*
G02*
X159790000Y-72264484I1672335J-1078608D01*
G01*
X157188870Y-72420163D02*
G75*
G02*
X159270961Y-72420000I1041130J-1079837D01*
G01*
X159270961Y-74580000D02*
G75*
G02*
X157188870Y-74579837I-1040961J1080000D01*
G01*
X159790000Y-74735516D02*
G75*
G02*
X156557665Y-74578608I-1560000J1235516D01*
G01*
X140660000Y-90630000D02*
X140660000Y-95830000D01*
X140660000Y-95830000D02*
X142310000Y-95830000D01*
X144310000Y-95830000D02*
X145960000Y-95830000D01*
X145960000Y-90630000D02*
X140660000Y-90630000D01*
X145960000Y-95830000D02*
X145960000Y-90630000D01*
X142310000Y-95830000D02*
G75*
G02*
X144310000Y-95830000I1000000J0D01*
G01*
X153790000Y-72420000D02*
X153790000Y-72264000D01*
X153790000Y-74736000D02*
X153790000Y-74580000D01*
X150557665Y-72421392D02*
G75*
G02*
X153790000Y-72264484I1672335J-1078608D01*
G01*
X151188870Y-72420163D02*
G75*
G02*
X153270961Y-72420000I1041130J-1079837D01*
G01*
X153270961Y-74580000D02*
G75*
G02*
X151188870Y-74579837I-1040961J1080000D01*
G01*
X153790000Y-74735516D02*
G75*
G02*
X150557665Y-74578608I-1560000J1235516D01*
G01*
X140660000Y-106670000D02*
X140660000Y-111870000D01*
X140660000Y-111870000D02*
X142310000Y-111870000D01*
X144310000Y-111870000D02*
X145960000Y-111870000D01*
X145960000Y-106670000D02*
X140660000Y-106670000D01*
X145960000Y-111870000D02*
X145960000Y-106670000D01*
X142310000Y-111870000D02*
G75*
G02*
X144310000Y-111870000I1000000J0D01*
G01*
X150630000Y-103730000D02*
X150630000Y-110270000D01*
X150630000Y-110270000D02*
X150960000Y-110270000D01*
X150960000Y-103730000D02*
X150630000Y-103730000D01*
X153040000Y-103730000D02*
X153370000Y-103730000D01*
X153370000Y-103730000D02*
X153370000Y-110270000D01*
X153370000Y-110270000D02*
X153040000Y-110270000D01*
X140660000Y-98670000D02*
X140660000Y-103870000D01*
X140660000Y-103870000D02*
X142310000Y-103870000D01*
X144310000Y-103870000D02*
X145960000Y-103870000D01*
X145960000Y-98670000D02*
X140660000Y-98670000D01*
X145960000Y-103870000D02*
X145960000Y-98670000D01*
X142310000Y-103870000D02*
G75*
G02*
X144310000Y-103870000I1000000J0D01*
G01*
X140660000Y-82670000D02*
X140660000Y-87870000D01*
X140660000Y-87870000D02*
X142310000Y-87870000D01*
X144310000Y-87870000D02*
X145960000Y-87870000D01*
X145960000Y-82670000D02*
X140660000Y-82670000D01*
X145960000Y-87870000D02*
X145960000Y-82670000D01*
X142310000Y-87870000D02*
G75*
G02*
X144310000Y-87870000I1000000J0D01*
G01*
X150630000Y-93040000D02*
X150630000Y-99580000D01*
X150630000Y-99580000D02*
X150960000Y-99580000D01*
X150960000Y-93040000D02*
X150630000Y-93040000D01*
X153040000Y-93040000D02*
X153370000Y-93040000D01*
X153370000Y-93040000D02*
X153370000Y-99580000D01*
X153370000Y-99580000D02*
X153040000Y-99580000D01*
%LPC*%
D12*
X166500000Y-117275000D03*
D13*
X166500000Y-114735000D03*
D14*
X163500000Y-88810000D03*
D15*
X163500000Y-81190000D03*
D12*
X166500000Y-124275000D03*
D13*
X166500000Y-121735000D03*
D14*
X134255000Y-83875000D03*
X134255000Y-91495000D03*
X134255000Y-94035000D03*
X134255000Y-101655000D03*
X159655000Y-91495000D03*
X159655000Y-88955000D03*
X159655000Y-94035000D03*
X134255000Y-88955000D03*
X134255000Y-104195000D03*
X134255000Y-106735000D03*
X134255000Y-109275000D03*
X134255000Y-116895000D03*
X134255000Y-119435000D03*
X159655000Y-101655000D03*
X159655000Y-99115000D03*
X159655000Y-96575000D03*
X159655000Y-106735000D03*
X159655000Y-104195000D03*
X159655000Y-111815000D03*
X159655000Y-109275000D03*
X159655000Y-119435000D03*
X134255000Y-86415000D03*
X159655000Y-86415000D03*
X134255000Y-111815000D03*
X134255000Y-96575000D03*
X134255000Y-114355000D03*
X134255000Y-99115000D03*
X159655000Y-83875000D03*
X159655000Y-114355000D03*
X159655000Y-116895000D03*
D12*
X166500000Y-110275000D03*
D13*
X166500000Y-107735000D03*
D12*
X166500000Y-96040000D03*
D13*
X166500000Y-93500000D03*
D12*
X141960000Y-78500000D03*
D13*
X144500000Y-78500000D03*
D14*
X170500000Y-88810000D03*
D15*
X170500000Y-81190000D03*
D12*
X166500000Y-103275000D03*
D13*
X166500000Y-100735000D03*
D14*
X167000000Y-88810000D03*
D15*
X167000000Y-81190000D03*
D14*
X139190000Y-123500000D03*
D15*
X146810000Y-123500000D03*
D16*
X165500000Y-73500000D03*
D17*
X162960000Y-73500000D03*
D14*
X152000000Y-89620000D03*
D15*
X152000000Y-82000000D03*
D14*
X152000000Y-121620000D03*
D15*
X152000000Y-114000000D03*
D18*
X139380000Y-118040000D03*
D15*
X139380000Y-115500000D03*
X147000000Y-115500000D03*
X147000000Y-118040000D03*
D16*
X159500000Y-73500000D03*
D17*
X156960000Y-73500000D03*
D18*
X139500000Y-94500000D03*
D15*
X139500000Y-91960000D03*
X147120000Y-91960000D03*
X147120000Y-94500000D03*
D16*
X153500000Y-73500000D03*
D17*
X150960000Y-73500000D03*
D18*
X139500000Y-110540000D03*
D15*
X139500000Y-108000000D03*
X147120000Y-108000000D03*
X147120000Y-110540000D03*
D14*
X152000000Y-110810000D03*
D15*
X152000000Y-103190000D03*
D18*
X139500000Y-102540000D03*
D15*
X139500000Y-100000000D03*
X147120000Y-100000000D03*
X147120000Y-102540000D03*
D18*
X139500000Y-86540000D03*
D15*
X139500000Y-84000000D03*
X147120000Y-84000000D03*
X147120000Y-86540000D03*
D14*
X152000000Y-100120000D03*
D15*
X152000000Y-92500000D03*
%LPD*%
M02*
