G04 #@! TF.GenerationSoftware,KiCad,Pcbnew,8.0.6*
G04 #@! TF.CreationDate,2025-10-25T19:24:46+02:00*
G04 #@! TF.ProjectId,COSMO Adapter v1.0,434f534d-4f20-4416-9461-707465722076,rev?*
G04 #@! TF.SameCoordinates,Original*
G04 #@! TF.FileFunction,Legend,Top*
G04 #@! TF.FilePolarity,Positive*
%FSLAX46Y46*%
G04 Gerber Fmt 4.6, Leading zero omitted, Abs format (unit mm)*
G04 Created by KiCad (PCBNEW 8.0.6) date 2025-10-25 19:24:46*
%MOMM*%
%LPD*%
G01*
G04 APERTURE LIST*
%ADD10C,0.150000*%
%ADD11C,0.120000*%
%ADD12R,1.700000X1.700000*%
%ADD13O,1.700000X1.700000*%
%ADD14C,1.600000*%
%ADD15O,1.600000X1.600000*%
%ADD16R,1.800000X1.800000*%
%ADD17C,1.800000*%
%ADD18R,1.600000X1.600000*%
G04 APERTURE END LIST*
D10*
X168954819Y-118380952D02*
X169669104Y-118380952D01*
X169669104Y-118380952D02*
X169811961Y-118428571D01*
X169811961Y-118428571D02*
X169907200Y-118523809D01*
X169907200Y-118523809D02*
X169954819Y-118666666D01*
X169954819Y-118666666D02*
X169954819Y-118761904D01*
X170050057Y-118142857D02*
X170050057Y-117380952D01*
X169954819Y-116666666D02*
X169954819Y-117142856D01*
X169954819Y-117142856D02*
X168954819Y-117142856D01*
X169431009Y-116333332D02*
X169431009Y-115999999D01*
X169954819Y-115857142D02*
X169954819Y-116333332D01*
X169954819Y-116333332D02*
X168954819Y-116333332D01*
X168954819Y-116333332D02*
X168954819Y-115857142D01*
X169431009Y-115095237D02*
X169431009Y-115428570D01*
X169954819Y-115428570D02*
X168954819Y-115428570D01*
X168954819Y-115428570D02*
X168954819Y-114952380D01*
X168954819Y-114714284D02*
X168954819Y-114142856D01*
X169954819Y-114428570D02*
X168954819Y-114428570D01*
X169954819Y-113285713D02*
X169954819Y-113857141D01*
X169954819Y-113571427D02*
X168954819Y-113571427D01*
X168954819Y-113571427D02*
X169097676Y-113666665D01*
X169097676Y-113666665D02*
X169192914Y-113761903D01*
X169192914Y-113761903D02*
X169240533Y-113857141D01*
X163854819Y-85166666D02*
X163378628Y-85499999D01*
X163854819Y-85738094D02*
X162854819Y-85738094D01*
X162854819Y-85738094D02*
X162854819Y-85357142D01*
X162854819Y-85357142D02*
X162902438Y-85261904D01*
X162902438Y-85261904D02*
X162950057Y-85214285D01*
X162950057Y-85214285D02*
X163045295Y-85166666D01*
X163045295Y-85166666D02*
X163188152Y-85166666D01*
X163188152Y-85166666D02*
X163283390Y-85214285D01*
X163283390Y-85214285D02*
X163331009Y-85261904D01*
X163331009Y-85261904D02*
X163378628Y-85357142D01*
X163378628Y-85357142D02*
X163378628Y-85738094D01*
X163283390Y-84595237D02*
X163235771Y-84690475D01*
X163235771Y-84690475D02*
X163188152Y-84738094D01*
X163188152Y-84738094D02*
X163092914Y-84785713D01*
X163092914Y-84785713D02*
X163045295Y-84785713D01*
X163045295Y-84785713D02*
X162950057Y-84738094D01*
X162950057Y-84738094D02*
X162902438Y-84690475D01*
X162902438Y-84690475D02*
X162854819Y-84595237D01*
X162854819Y-84595237D02*
X162854819Y-84404761D01*
X162854819Y-84404761D02*
X162902438Y-84309523D01*
X162902438Y-84309523D02*
X162950057Y-84261904D01*
X162950057Y-84261904D02*
X163045295Y-84214285D01*
X163045295Y-84214285D02*
X163092914Y-84214285D01*
X163092914Y-84214285D02*
X163188152Y-84261904D01*
X163188152Y-84261904D02*
X163235771Y-84309523D01*
X163235771Y-84309523D02*
X163283390Y-84404761D01*
X163283390Y-84404761D02*
X163283390Y-84595237D01*
X163283390Y-84595237D02*
X163331009Y-84690475D01*
X163331009Y-84690475D02*
X163378628Y-84738094D01*
X163378628Y-84738094D02*
X163473866Y-84785713D01*
X163473866Y-84785713D02*
X163664342Y-84785713D01*
X163664342Y-84785713D02*
X163759580Y-84738094D01*
X163759580Y-84738094D02*
X163807200Y-84690475D01*
X163807200Y-84690475D02*
X163854819Y-84595237D01*
X163854819Y-84595237D02*
X163854819Y-84404761D01*
X163854819Y-84404761D02*
X163807200Y-84309523D01*
X163807200Y-84309523D02*
X163759580Y-84261904D01*
X163759580Y-84261904D02*
X163664342Y-84214285D01*
X163664342Y-84214285D02*
X163473866Y-84214285D01*
X163473866Y-84214285D02*
X163378628Y-84261904D01*
X163378628Y-84261904D02*
X163331009Y-84309523D01*
X163331009Y-84309523D02*
X163283390Y-84404761D01*
X168954819Y-124738095D02*
X169669104Y-124738095D01*
X169669104Y-124738095D02*
X169811961Y-124785714D01*
X169811961Y-124785714D02*
X169907200Y-124880952D01*
X169907200Y-124880952D02*
X169954819Y-125023809D01*
X169954819Y-125023809D02*
X169954819Y-125119047D01*
X170050057Y-124500000D02*
X170050057Y-123738095D01*
X168954819Y-123499999D02*
X169764342Y-123499999D01*
X169764342Y-123499999D02*
X169859580Y-123452380D01*
X169859580Y-123452380D02*
X169907200Y-123404761D01*
X169907200Y-123404761D02*
X169954819Y-123309523D01*
X169954819Y-123309523D02*
X169954819Y-123119047D01*
X169954819Y-123119047D02*
X169907200Y-123023809D01*
X169907200Y-123023809D02*
X169859580Y-122976190D01*
X169859580Y-122976190D02*
X169764342Y-122928571D01*
X169764342Y-122928571D02*
X168954819Y-122928571D01*
X169954819Y-122452380D02*
X168954819Y-122452380D01*
X168954819Y-122452380D02*
X168954819Y-122071428D01*
X168954819Y-122071428D02*
X169002438Y-121976190D01*
X169002438Y-121976190D02*
X169050057Y-121928571D01*
X169050057Y-121928571D02*
X169145295Y-121880952D01*
X169145295Y-121880952D02*
X169288152Y-121880952D01*
X169288152Y-121880952D02*
X169383390Y-121928571D01*
X169383390Y-121928571D02*
X169431009Y-121976190D01*
X169431009Y-121976190D02*
X169478628Y-122071428D01*
X169478628Y-122071428D02*
X169478628Y-122452380D01*
X169954819Y-120928571D02*
X169954819Y-121499999D01*
X169954819Y-121214285D02*
X168954819Y-121214285D01*
X168954819Y-121214285D02*
X169097676Y-121309523D01*
X169097676Y-121309523D02*
X169192914Y-121404761D01*
X169192914Y-121404761D02*
X169240533Y-121499999D01*
X168954819Y-111857142D02*
X169669104Y-111857142D01*
X169669104Y-111857142D02*
X169811961Y-111904761D01*
X169811961Y-111904761D02*
X169907200Y-111999999D01*
X169907200Y-111999999D02*
X169954819Y-112142856D01*
X169954819Y-112142856D02*
X169954819Y-112238094D01*
X170050057Y-111619047D02*
X170050057Y-110857142D01*
X169954819Y-110047618D02*
X169478628Y-110380951D01*
X169954819Y-110619046D02*
X168954819Y-110619046D01*
X168954819Y-110619046D02*
X168954819Y-110238094D01*
X168954819Y-110238094D02*
X169002438Y-110142856D01*
X169002438Y-110142856D02*
X169050057Y-110095237D01*
X169050057Y-110095237D02*
X169145295Y-110047618D01*
X169145295Y-110047618D02*
X169288152Y-110047618D01*
X169288152Y-110047618D02*
X169383390Y-110095237D01*
X169383390Y-110095237D02*
X169431009Y-110142856D01*
X169431009Y-110142856D02*
X169478628Y-110238094D01*
X169478628Y-110238094D02*
X169478628Y-110619046D01*
X169954819Y-109619046D02*
X168954819Y-109619046D01*
X169002438Y-108619047D02*
X168954819Y-108714285D01*
X168954819Y-108714285D02*
X168954819Y-108857142D01*
X168954819Y-108857142D02*
X169002438Y-108999999D01*
X169002438Y-108999999D02*
X169097676Y-109095237D01*
X169097676Y-109095237D02*
X169192914Y-109142856D01*
X169192914Y-109142856D02*
X169383390Y-109190475D01*
X169383390Y-109190475D02*
X169526247Y-109190475D01*
X169526247Y-109190475D02*
X169716723Y-109142856D01*
X169716723Y-109142856D02*
X169811961Y-109095237D01*
X169811961Y-109095237D02*
X169907200Y-108999999D01*
X169907200Y-108999999D02*
X169954819Y-108857142D01*
X169954819Y-108857142D02*
X169954819Y-108761904D01*
X169954819Y-108761904D02*
X169907200Y-108619047D01*
X169907200Y-108619047D02*
X169859580Y-108571428D01*
X169859580Y-108571428D02*
X169526247Y-108571428D01*
X169526247Y-108571428D02*
X169526247Y-108761904D01*
X169954819Y-108142856D02*
X168954819Y-108142856D01*
X169431009Y-108142856D02*
X169431009Y-107571428D01*
X169954819Y-107571428D02*
X168954819Y-107571428D01*
X168954819Y-107238094D02*
X168954819Y-106666666D01*
X169954819Y-106952380D02*
X168954819Y-106952380D01*
X169954819Y-105809523D02*
X169954819Y-106380951D01*
X169954819Y-106095237D02*
X168954819Y-106095237D01*
X168954819Y-106095237D02*
X169097676Y-106190475D01*
X169097676Y-106190475D02*
X169192914Y-106285713D01*
X169192914Y-106285713D02*
X169240533Y-106380951D01*
X168954819Y-97598333D02*
X169669104Y-97598333D01*
X169669104Y-97598333D02*
X169811961Y-97645952D01*
X169811961Y-97645952D02*
X169907200Y-97741190D01*
X169907200Y-97741190D02*
X169954819Y-97884047D01*
X169954819Y-97884047D02*
X169954819Y-97979285D01*
X170050057Y-97360238D02*
X170050057Y-96598333D01*
X169954819Y-96360237D02*
X168954819Y-96360237D01*
X168954819Y-96360237D02*
X168954819Y-96122142D01*
X168954819Y-96122142D02*
X169002438Y-95979285D01*
X169002438Y-95979285D02*
X169097676Y-95884047D01*
X169097676Y-95884047D02*
X169192914Y-95836428D01*
X169192914Y-95836428D02*
X169383390Y-95788809D01*
X169383390Y-95788809D02*
X169526247Y-95788809D01*
X169526247Y-95788809D02*
X169716723Y-95836428D01*
X169716723Y-95836428D02*
X169811961Y-95884047D01*
X169811961Y-95884047D02*
X169907200Y-95979285D01*
X169907200Y-95979285D02*
X169954819Y-96122142D01*
X169954819Y-96122142D02*
X169954819Y-96360237D01*
X168954819Y-95169761D02*
X168954819Y-94979285D01*
X168954819Y-94979285D02*
X169002438Y-94884047D01*
X169002438Y-94884047D02*
X169097676Y-94788809D01*
X169097676Y-94788809D02*
X169288152Y-94741190D01*
X169288152Y-94741190D02*
X169621485Y-94741190D01*
X169621485Y-94741190D02*
X169811961Y-94788809D01*
X169811961Y-94788809D02*
X169907200Y-94884047D01*
X169907200Y-94884047D02*
X169954819Y-94979285D01*
X169954819Y-94979285D02*
X169954819Y-95169761D01*
X169954819Y-95169761D02*
X169907200Y-95264999D01*
X169907200Y-95264999D02*
X169811961Y-95360237D01*
X169811961Y-95360237D02*
X169621485Y-95407856D01*
X169621485Y-95407856D02*
X169288152Y-95407856D01*
X169288152Y-95407856D02*
X169097676Y-95360237D01*
X169097676Y-95360237D02*
X169002438Y-95264999D01*
X169002438Y-95264999D02*
X168954819Y-95169761D01*
X168954819Y-94407856D02*
X169954819Y-94169761D01*
X169954819Y-94169761D02*
X169240533Y-93979285D01*
X169240533Y-93979285D02*
X169954819Y-93788809D01*
X169954819Y-93788809D02*
X168954819Y-93550714D01*
X169954819Y-93169761D02*
X168954819Y-93169761D01*
X168954819Y-93169761D02*
X169954819Y-92598333D01*
X169954819Y-92598333D02*
X168954819Y-92598333D01*
X169954819Y-91598333D02*
X169954819Y-92169761D01*
X169954819Y-91884047D02*
X168954819Y-91884047D01*
X168954819Y-91884047D02*
X169097676Y-91979285D01*
X169097676Y-91979285D02*
X169192914Y-92074523D01*
X169192914Y-92074523D02*
X169240533Y-92169761D01*
X140714285Y-80954819D02*
X140714285Y-81669104D01*
X140714285Y-81669104D02*
X140666666Y-81811961D01*
X140666666Y-81811961D02*
X140571428Y-81907200D01*
X140571428Y-81907200D02*
X140428571Y-81954819D01*
X140428571Y-81954819D02*
X140333333Y-81954819D01*
X140952381Y-82050057D02*
X141714285Y-82050057D01*
X141952381Y-81954819D02*
X141952381Y-80954819D01*
X141952381Y-80954819D02*
X142333333Y-80954819D01*
X142333333Y-80954819D02*
X142428571Y-81002438D01*
X142428571Y-81002438D02*
X142476190Y-81050057D01*
X142476190Y-81050057D02*
X142523809Y-81145295D01*
X142523809Y-81145295D02*
X142523809Y-81288152D01*
X142523809Y-81288152D02*
X142476190Y-81383390D01*
X142476190Y-81383390D02*
X142428571Y-81431009D01*
X142428571Y-81431009D02*
X142333333Y-81478628D01*
X142333333Y-81478628D02*
X141952381Y-81478628D01*
X142857143Y-80954819D02*
X143095238Y-81954819D01*
X143095238Y-81954819D02*
X143285714Y-81240533D01*
X143285714Y-81240533D02*
X143476190Y-81954819D01*
X143476190Y-81954819D02*
X143714286Y-80954819D01*
X144666666Y-81954819D02*
X144333333Y-81478628D01*
X144095238Y-81954819D02*
X144095238Y-80954819D01*
X144095238Y-80954819D02*
X144476190Y-80954819D01*
X144476190Y-80954819D02*
X144571428Y-81002438D01*
X144571428Y-81002438D02*
X144619047Y-81050057D01*
X144619047Y-81050057D02*
X144666666Y-81145295D01*
X144666666Y-81145295D02*
X144666666Y-81288152D01*
X144666666Y-81288152D02*
X144619047Y-81383390D01*
X144619047Y-81383390D02*
X144571428Y-81431009D01*
X144571428Y-81431009D02*
X144476190Y-81478628D01*
X144476190Y-81478628D02*
X144095238Y-81478628D01*
X145619047Y-81954819D02*
X145047619Y-81954819D01*
X145333333Y-81954819D02*
X145333333Y-80954819D01*
X145333333Y-80954819D02*
X145238095Y-81097676D01*
X145238095Y-81097676D02*
X145142857Y-81192914D01*
X145142857Y-81192914D02*
X145047619Y-81240533D01*
X170954819Y-85166666D02*
X170478628Y-85499999D01*
X170954819Y-85738094D02*
X169954819Y-85738094D01*
X169954819Y-85738094D02*
X169954819Y-85357142D01*
X169954819Y-85357142D02*
X170002438Y-85261904D01*
X170002438Y-85261904D02*
X170050057Y-85214285D01*
X170050057Y-85214285D02*
X170145295Y-85166666D01*
X170145295Y-85166666D02*
X170288152Y-85166666D01*
X170288152Y-85166666D02*
X170383390Y-85214285D01*
X170383390Y-85214285D02*
X170431009Y-85261904D01*
X170431009Y-85261904D02*
X170478628Y-85357142D01*
X170478628Y-85357142D02*
X170478628Y-85738094D01*
X169954819Y-84309523D02*
X169954819Y-84499999D01*
X169954819Y-84499999D02*
X170002438Y-84595237D01*
X170002438Y-84595237D02*
X170050057Y-84642856D01*
X170050057Y-84642856D02*
X170192914Y-84738094D01*
X170192914Y-84738094D02*
X170383390Y-84785713D01*
X170383390Y-84785713D02*
X170764342Y-84785713D01*
X170764342Y-84785713D02*
X170859580Y-84738094D01*
X170859580Y-84738094D02*
X170907200Y-84690475D01*
X170907200Y-84690475D02*
X170954819Y-84595237D01*
X170954819Y-84595237D02*
X170954819Y-84404761D01*
X170954819Y-84404761D02*
X170907200Y-84309523D01*
X170907200Y-84309523D02*
X170859580Y-84261904D01*
X170859580Y-84261904D02*
X170764342Y-84214285D01*
X170764342Y-84214285D02*
X170526247Y-84214285D01*
X170526247Y-84214285D02*
X170431009Y-84261904D01*
X170431009Y-84261904D02*
X170383390Y-84309523D01*
X170383390Y-84309523D02*
X170335771Y-84404761D01*
X170335771Y-84404761D02*
X170335771Y-84595237D01*
X170335771Y-84595237D02*
X170383390Y-84690475D01*
X170383390Y-84690475D02*
X170431009Y-84738094D01*
X170431009Y-84738094D02*
X170526247Y-84785713D01*
X168954819Y-104595238D02*
X169669104Y-104595238D01*
X169669104Y-104595238D02*
X169811961Y-104642857D01*
X169811961Y-104642857D02*
X169907200Y-104738095D01*
X169907200Y-104738095D02*
X169954819Y-104880952D01*
X169954819Y-104880952D02*
X169954819Y-104976190D01*
X170050057Y-104357143D02*
X170050057Y-103595238D01*
X169907200Y-103404761D02*
X169954819Y-103261904D01*
X169954819Y-103261904D02*
X169954819Y-103023809D01*
X169954819Y-103023809D02*
X169907200Y-102928571D01*
X169907200Y-102928571D02*
X169859580Y-102880952D01*
X169859580Y-102880952D02*
X169764342Y-102833333D01*
X169764342Y-102833333D02*
X169669104Y-102833333D01*
X169669104Y-102833333D02*
X169573866Y-102880952D01*
X169573866Y-102880952D02*
X169526247Y-102928571D01*
X169526247Y-102928571D02*
X169478628Y-103023809D01*
X169478628Y-103023809D02*
X169431009Y-103214285D01*
X169431009Y-103214285D02*
X169383390Y-103309523D01*
X169383390Y-103309523D02*
X169335771Y-103357142D01*
X169335771Y-103357142D02*
X169240533Y-103404761D01*
X169240533Y-103404761D02*
X169145295Y-103404761D01*
X169145295Y-103404761D02*
X169050057Y-103357142D01*
X169050057Y-103357142D02*
X169002438Y-103309523D01*
X169002438Y-103309523D02*
X168954819Y-103214285D01*
X168954819Y-103214285D02*
X168954819Y-102976190D01*
X168954819Y-102976190D02*
X169002438Y-102833333D01*
X168954819Y-102547618D02*
X168954819Y-101976190D01*
X169954819Y-102261904D02*
X168954819Y-102261904D01*
X168954819Y-101452380D02*
X168954819Y-101261904D01*
X168954819Y-101261904D02*
X169002438Y-101166666D01*
X169002438Y-101166666D02*
X169097676Y-101071428D01*
X169097676Y-101071428D02*
X169288152Y-101023809D01*
X169288152Y-101023809D02*
X169621485Y-101023809D01*
X169621485Y-101023809D02*
X169811961Y-101071428D01*
X169811961Y-101071428D02*
X169907200Y-101166666D01*
X169907200Y-101166666D02*
X169954819Y-101261904D01*
X169954819Y-101261904D02*
X169954819Y-101452380D01*
X169954819Y-101452380D02*
X169907200Y-101547618D01*
X169907200Y-101547618D02*
X169811961Y-101642856D01*
X169811961Y-101642856D02*
X169621485Y-101690475D01*
X169621485Y-101690475D02*
X169288152Y-101690475D01*
X169288152Y-101690475D02*
X169097676Y-101642856D01*
X169097676Y-101642856D02*
X169002438Y-101547618D01*
X169002438Y-101547618D02*
X168954819Y-101452380D01*
X169954819Y-100595237D02*
X168954819Y-100595237D01*
X168954819Y-100595237D02*
X168954819Y-100214285D01*
X168954819Y-100214285D02*
X169002438Y-100119047D01*
X169002438Y-100119047D02*
X169050057Y-100071428D01*
X169050057Y-100071428D02*
X169145295Y-100023809D01*
X169145295Y-100023809D02*
X169288152Y-100023809D01*
X169288152Y-100023809D02*
X169383390Y-100071428D01*
X169383390Y-100071428D02*
X169431009Y-100119047D01*
X169431009Y-100119047D02*
X169478628Y-100214285D01*
X169478628Y-100214285D02*
X169478628Y-100595237D01*
X169954819Y-99071428D02*
X169954819Y-99642856D01*
X169954819Y-99357142D02*
X168954819Y-99357142D01*
X168954819Y-99357142D02*
X169097676Y-99452380D01*
X169097676Y-99452380D02*
X169192914Y-99547618D01*
X169192914Y-99547618D02*
X169240533Y-99642856D01*
X167404819Y-85166666D02*
X166928628Y-85499999D01*
X167404819Y-85738094D02*
X166404819Y-85738094D01*
X166404819Y-85738094D02*
X166404819Y-85357142D01*
X166404819Y-85357142D02*
X166452438Y-85261904D01*
X166452438Y-85261904D02*
X166500057Y-85214285D01*
X166500057Y-85214285D02*
X166595295Y-85166666D01*
X166595295Y-85166666D02*
X166738152Y-85166666D01*
X166738152Y-85166666D02*
X166833390Y-85214285D01*
X166833390Y-85214285D02*
X166881009Y-85261904D01*
X166881009Y-85261904D02*
X166928628Y-85357142D01*
X166928628Y-85357142D02*
X166928628Y-85738094D01*
X166404819Y-84833332D02*
X166404819Y-84166666D01*
X166404819Y-84166666D02*
X167404819Y-84595237D01*
D11*
X165170000Y-116005000D02*
X165170000Y-113405000D01*
X167830000Y-113405000D02*
X165170000Y-113405000D01*
X167830000Y-116005000D02*
X165170000Y-116005000D01*
X167830000Y-116005000D02*
X167830000Y-113405000D01*
X167830000Y-117275000D02*
X167830000Y-118605000D01*
X167830000Y-118605000D02*
X166500000Y-118605000D01*
X162130000Y-81730000D02*
X162460000Y-81730000D01*
X162130000Y-88270000D02*
X162130000Y-81730000D01*
X162460000Y-88270000D02*
X162130000Y-88270000D01*
X164540000Y-88270000D02*
X164870000Y-88270000D01*
X164870000Y-81730000D02*
X164540000Y-81730000D01*
X164870000Y-88270000D02*
X164870000Y-81730000D01*
X165170000Y-123005000D02*
X165170000Y-120405000D01*
X167830000Y-120405000D02*
X165170000Y-120405000D01*
X167830000Y-123005000D02*
X165170000Y-123005000D01*
X167830000Y-123005000D02*
X167830000Y-120405000D01*
X167830000Y-124275000D02*
X167830000Y-125605000D01*
X167830000Y-125605000D02*
X166500000Y-125605000D01*
X165170000Y-109005000D02*
X165170000Y-106405000D01*
X167830000Y-106405000D02*
X165170000Y-106405000D01*
X167830000Y-109005000D02*
X165170000Y-109005000D01*
X167830000Y-109005000D02*
X167830000Y-106405000D01*
X167830000Y-110275000D02*
X167830000Y-111605000D01*
X167830000Y-111605000D02*
X166500000Y-111605000D01*
X165170000Y-94770000D02*
X165170000Y-92170000D01*
X167830000Y-92170000D02*
X165170000Y-92170000D01*
X167830000Y-94770000D02*
X165170000Y-94770000D01*
X167830000Y-94770000D02*
X167830000Y-92170000D01*
X167830000Y-96040000D02*
X167830000Y-97370000D01*
X167830000Y-97370000D02*
X166500000Y-97370000D01*
X140630000Y-79830000D02*
X140630000Y-78500000D01*
X141960000Y-79830000D02*
X140630000Y-79830000D01*
X143230000Y-77170000D02*
X145830000Y-77170000D01*
X143230000Y-79830000D02*
X143230000Y-77170000D01*
X143230000Y-79830000D02*
X145830000Y-79830000D01*
X145830000Y-79830000D02*
X145830000Y-77170000D01*
X169130000Y-81730000D02*
X169460000Y-81730000D01*
X169130000Y-88270000D02*
X169130000Y-81730000D01*
X169460000Y-88270000D02*
X169130000Y-88270000D01*
X171540000Y-88270000D02*
X171870000Y-88270000D01*
X171870000Y-81730000D02*
X171540000Y-81730000D01*
X171870000Y-88270000D02*
X171870000Y-81730000D01*
X165170000Y-102005000D02*
X165170000Y-99405000D01*
X167830000Y-99405000D02*
X165170000Y-99405000D01*
X167830000Y-102005000D02*
X165170000Y-102005000D01*
X167830000Y-102005000D02*
X167830000Y-99405000D01*
X167830000Y-103275000D02*
X167830000Y-104605000D01*
X167830000Y-104605000D02*
X166500000Y-104605000D01*
X165630000Y-81730000D02*
X165960000Y-81730000D01*
X165630000Y-88270000D02*
X165630000Y-81730000D01*
X165960000Y-88270000D02*
X165630000Y-88270000D01*
X168040000Y-88270000D02*
X168370000Y-88270000D01*
X168370000Y-81730000D02*
X168040000Y-81730000D01*
X168370000Y-88270000D02*
X168370000Y-81730000D01*
%LPC*%
D12*
X166500000Y-117275000D03*
D13*
X166500000Y-114735000D03*
D14*
X163500000Y-88810000D03*
D15*
X163500000Y-81190000D03*
D12*
X166500000Y-124275000D03*
D13*
X166500000Y-121735000D03*
D14*
X134255000Y-83875000D03*
X134255000Y-91495000D03*
X134255000Y-94035000D03*
X134255000Y-101655000D03*
X159655000Y-91495000D03*
X159655000Y-88955000D03*
X159655000Y-94035000D03*
X134255000Y-88955000D03*
X134255000Y-104195000D03*
X134255000Y-106735000D03*
X134255000Y-109275000D03*
X134255000Y-116895000D03*
X134255000Y-119435000D03*
X159655000Y-101655000D03*
X159655000Y-99115000D03*
X159655000Y-96575000D03*
X159655000Y-106735000D03*
X159655000Y-104195000D03*
X159655000Y-111815000D03*
X159655000Y-109275000D03*
X159655000Y-119435000D03*
X134255000Y-86415000D03*
X159655000Y-86415000D03*
X134255000Y-111815000D03*
X134255000Y-96575000D03*
X134255000Y-114355000D03*
X134255000Y-99115000D03*
X159655000Y-83875000D03*
X159655000Y-114355000D03*
X159655000Y-116895000D03*
D12*
X166500000Y-110275000D03*
D13*
X166500000Y-107735000D03*
D12*
X166500000Y-96040000D03*
D13*
X166500000Y-93500000D03*
D12*
X141960000Y-78500000D03*
D13*
X144500000Y-78500000D03*
D14*
X170500000Y-88810000D03*
D15*
X170500000Y-81190000D03*
D12*
X166500000Y-103275000D03*
D13*
X166500000Y-100735000D03*
D14*
X167000000Y-88810000D03*
D15*
X167000000Y-81190000D03*
D14*
X139190000Y-123500000D03*
D15*
X146810000Y-123500000D03*
D16*
X165500000Y-73500000D03*
D17*
X162960000Y-73500000D03*
D14*
X152000000Y-89620000D03*
D15*
X152000000Y-82000000D03*
D14*
X152000000Y-121620000D03*
D15*
X152000000Y-114000000D03*
D18*
X139380000Y-118040000D03*
D15*
X139380000Y-115500000D03*
X147000000Y-115500000D03*
X147000000Y-118040000D03*
D16*
X159500000Y-73500000D03*
D17*
X156960000Y-73500000D03*
D18*
X139500000Y-94500000D03*
D15*
X139500000Y-91960000D03*
X147120000Y-91960000D03*
X147120000Y-94500000D03*
D16*
X153500000Y-73500000D03*
D17*
X150960000Y-73500000D03*
D18*
X139500000Y-110540000D03*
D15*
X139500000Y-108000000D03*
X147120000Y-108000000D03*
X147120000Y-110540000D03*
D14*
X152000000Y-110810000D03*
D15*
X152000000Y-103190000D03*
D18*
X139500000Y-102540000D03*
D15*
X139500000Y-100000000D03*
X147120000Y-100000000D03*
X147120000Y-102540000D03*
D18*
X139500000Y-86540000D03*
D15*
X139500000Y-84000000D03*
X147120000Y-84000000D03*
X147120000Y-86540000D03*
D14*
X152000000Y-100120000D03*
D15*
X152000000Y-92500000D03*
%LPD*%
M02*
