G04 #@! TF.GenerationSoftware,KiCad,Pcbnew,8.0.6*
G04 #@! TF.CreationDate,2025-10-25T19:24:46+02:00*
G04 #@! TF.ProjectId,COSMO Adapter v1.0,434f534d-4f20-4416-9461-707465722076,rev?*
G04 #@! TF.SameCoordinates,Original*
G04 #@! TF.FileFunction,Soldermask,Bot*
G04 #@! TF.FilePolarity,Negative*
%FSLAX46Y46*%
G04 Gerber Fmt 4.6, Leading zero omitted, Abs format (unit mm)*
G04 Created by KiCad (PCBNEW 8.0.6) date 2025-10-25 19:24:46*
%MOMM*%
%LPD*%
G01*
G04 APERTURE LIST*
%ADD10R,1.700000X1.700000*%
%ADD11O,1.700000X1.700000*%
%ADD12C,1.600000*%
%ADD13O,1.600000X1.600000*%
%ADD14R,1.800000X1.800000*%
%ADD15C,1.800000*%
%ADD16R,1.600000X1.600000*%
G04 APERTURE END LIST*
D10*
X166500000Y-117275000D03*
D11*
X166500000Y-114735000D03*
D12*
X163500000Y-88810000D03*
D13*
X163500000Y-81190000D03*
D10*
X166500000Y-124275000D03*
D11*
X166500000Y-121735000D03*
D12*
X134255000Y-83875000D03*
X134255000Y-91495000D03*
X134255000Y-94035000D03*
X134255000Y-101655000D03*
X159655000Y-91495000D03*
X159655000Y-88955000D03*
X159655000Y-94035000D03*
X134255000Y-88955000D03*
X134255000Y-104195000D03*
X134255000Y-106735000D03*
X134255000Y-109275000D03*
X134255000Y-116895000D03*
X134255000Y-119435000D03*
X159655000Y-101655000D03*
X159655000Y-99115000D03*
X159655000Y-96575000D03*
X159655000Y-106735000D03*
X159655000Y-104195000D03*
X159655000Y-111815000D03*
X159655000Y-109275000D03*
X159655000Y-119435000D03*
X134255000Y-86415000D03*
X159655000Y-86415000D03*
X134255000Y-111815000D03*
X134255000Y-96575000D03*
X134255000Y-114355000D03*
X134255000Y-99115000D03*
X159655000Y-83875000D03*
X159655000Y-114355000D03*
X159655000Y-116895000D03*
D10*
X166500000Y-110275000D03*
D11*
X166500000Y-107735000D03*
D10*
X166500000Y-96040000D03*
D11*
X166500000Y-93500000D03*
D10*
X141960000Y-78500000D03*
D11*
X144500000Y-78500000D03*
D12*
X170500000Y-88810000D03*
D13*
X170500000Y-81190000D03*
D10*
X166500000Y-103275000D03*
D11*
X166500000Y-100735000D03*
D12*
X167000000Y-88810000D03*
D13*
X167000000Y-81190000D03*
D12*
X139190000Y-123500000D03*
D13*
X146810000Y-123500000D03*
D14*
X165500000Y-73500000D03*
D15*
X162960000Y-73500000D03*
D12*
X152000000Y-89620000D03*
D13*
X152000000Y-82000000D03*
D12*
X152000000Y-121620000D03*
D13*
X152000000Y-114000000D03*
D16*
X139380000Y-118040000D03*
D13*
X139380000Y-115500000D03*
X147000000Y-115500000D03*
X147000000Y-118040000D03*
D14*
X159500000Y-73500000D03*
D15*
X156960000Y-73500000D03*
D16*
X139500000Y-94500000D03*
D13*
X139500000Y-91960000D03*
X147120000Y-91960000D03*
X147120000Y-94500000D03*
D14*
X153500000Y-73500000D03*
D15*
X150960000Y-73500000D03*
D16*
X139500000Y-110540000D03*
D13*
X139500000Y-108000000D03*
X147120000Y-108000000D03*
X147120000Y-110540000D03*
D12*
X152000000Y-110810000D03*
D13*
X152000000Y-103190000D03*
D16*
X139500000Y-102540000D03*
D13*
X139500000Y-100000000D03*
X147120000Y-100000000D03*
X147120000Y-102540000D03*
D16*
X139500000Y-86540000D03*
D13*
X139500000Y-84000000D03*
X147120000Y-84000000D03*
X147120000Y-86540000D03*
D12*
X152000000Y-100120000D03*
D13*
X152000000Y-92500000D03*
M02*
